FrauncesItalic-LightOpMaxGoofyMax.ufo
<glyph name="A" format="2">
  <advance width="1083"/>
  <unicode hex="0041"/>
  <anchor x="1142" y="1532" name="center"/>
  <outline>
    <contour>
      <point x="154" y="142" type="curve" smooth="yes"/>
      <point x="718" y="1052" type="line" smooth="yes"/>
      <point x="798" y="1176"/>
      <point x="865" y="1267"/>
      <point x="892" y="1296" type="curve"/>
      <point x="881" y="1312" type="line"/>
      <point x="869" y="1019"/>
      <point x="840" y="368"/>
      <point x="826" y="119" type="curve" smooth="yes"/>
      <point x="823" y="78"/>
      <point x="799" y="59"/>
      <point x="760" y="52" type="curve" smooth="yes"/>
      <point x="684" y="33" type="line" smooth="yes"/>
      <point x="673" y="32"/>
      <point x="663" y="24"/>
      <point x="663" y="17" type="curve" smooth="yes"/>
      <point x="662" y="4"/>
      <point x="674" y="0"/>
      <point x="685" y="0" type="curve" smooth="yes"/>
      <point x="976" y="0" type="line" smooth="yes"/>
      <point x="997" y="0"/>
      <point x="1005" y="6"/>
      <point x="1006" y="18" type="curve" smooth="yes"/>
      <point x="1006" y="28"/>
      <point x="997" y="36"/>
      <point x="979" y="35" type="curve" smooth="yes"/>
      <point x="918" y="41"/>
      <point x="879" y="58"/>
      <point x="881" y="108" type="curve" smooth="yes"/>
      <point x="888" y="372"/>
      <point x="918" y="1007"/>
      <point x="930" y="1298" type="curve" smooth="yes"/>
      <point x="932" y="1346"/>
      <point x="954" y="1368"/>
      <point x="993" y="1368" type="curve" smooth="yes"/>
      <point x="1013" y="1367"/>
      <point x="1027" y="1380"/>
      <point x="1027" y="1394" type="curve" smooth="yes"/>
      <point x="1027" y="1404"/>
      <point x="1018" y="1407"/>
      <point x="1003" y="1407" type="curve" smooth="yes"/>
      <point x="926" y="1407"/>
      <point x="832" y="1302"/>
      <point x="690" y="1083" type="curve" smooth="yes"/>
      <point x="87" y="125" type="line" smooth="yes"/>
      <point x="54" y="74"/>
      <point x="14" y="52"/>
      <point x="-28" y="46" type="curve" smooth="yes"/>
      <point x="-56" y="46"/>
      <point x="-73" y="41"/>
      <point x="-73" y="25" type="curve" smooth="yes"/>
      <point x="-74" y="7"/>
      <point x="-60" y="0"/>
      <point x="-30" y="0" type="curve" smooth="yes"/>
      <point x="233" y="0" type="line" smooth="yes"/>
      <point x="255" y="0"/>
      <point x="267" y="7"/>
      <point x="267" y="19" type="curve" smooth="yes"/>
      <point x="267" y="33"/>
      <point x="260" y="44"/>
      <point x="238" y="43" type="curve" smooth="yes"/>
      <point x="163" y="53" type="line" smooth="yes"/>
      <point x="123" y="57"/>
      <point x="121" y="92"/>
    </contour>
    <contour>
      <point x="330" y="505" type="line"/>
      <point x="878" y="505" type="line"/>
      <point x="882" y="542" type="line"/>
      <point x="361" y="542" type="line"/>
    </contour>
  </outline>
</glyph>
<glyph name="D" format="2">
  <advance width="1288"/>
  <unicode hex="0044"/>
  <outline>
    <contour>
      <point x="-7" y="16" type="curve" smooth="yes"/>
      <point x="-8" y="7"/>
      <point x="-2" y="0"/>
      <point x="14" y="0" type="curve" smooth="yes"/>
      <point x="443" y="0" type="line" smooth="yes"/>
      <point x="881" y="0"/>
      <point x="1217" y="241"/>
      <point x="1299" y="703" type="curve" smooth="yes"/>
      <point x="1365" y="1091"/>
      <point x="1120" y="1400"/>
      <point x="803" y="1400" type="curve" smooth="yes"/>
      <point x="421" y="1400" type="line" smooth="yes"/>
      <point x="393" y="1400"/>
      <point x="382" y="1397"/>
      <point x="381" y="1386" type="curve" smooth="yes"/>
      <point x="381" y="1372"/>
      <point x="388" y="1367"/>
      <point x="423" y="1361" type="curve" smooth="yes"/>
      <point x="471" y="1351" type="line" smooth="yes"/>
      <point x="512" y="1342"/>
      <point x="524" y="1317"/>
      <point x="510" y="1262" type="curve" smooth="yes"/>
      <point x="482" y="1142"/>
      <point x="210" y="178"/>
      <point x="189" y="131" type="curve" smooth="yes"/>
      <point x="166" y="77"/>
      <point x="128" y="48"/>
      <point x="96" y="45" type="curve" smooth="yes"/>
      <point x="37" y="37" type="line" smooth="yes"/>
      <point x="4" y="34"/>
      <point x="-7" y="31"/>
    </contour>
    <contour>
      <point x="455" y="47" type="curve" smooth="yes"/>
      <point x="281" y="47" type="line" smooth="yes"/>
      <point x="245" y="47"/>
      <point x="236" y="57"/>
      <point x="241" y="84" type="curve" smooth="yes"/>
      <point x="250" y="148"/>
      <point x="558" y="1226"/>
      <point x="589" y="1324" type="curve" smooth="yes"/>
      <point x="596" y="1342"/>
      <point x="618" y="1364"/>
      <point x="651" y="1364" type="curve" smooth="yes"/>
      <point x="795" y="1364" type="line" smooth="yes"/>
      <point x="1063" y="1364"/>
      <point x="1307" y="1094"/>
      <point x="1246" y="708" type="curve" smooth="yes"/>
      <point x="1183" y="317"/>
      <point x="876" y="47"/>
    </contour>
  </outline>
</glyph>
<glyph name="E" format="2">
  <advance width="1050"/>
  <unicode hex="0045"/>
  <anchor x="908" y="1470" name="center"/>
  <outline>
    <contour>
      <point x="377" y="701" type="line"/>
      <point x="365" y="665" type="line"/>
      <point x="767" y="665" type="line" smooth="yes"/>
      <point x="819" y="665"/>
      <point x="841" y="649"/>
      <point x="860" y="555" type="curve" smooth="yes"/>
      <point x="867" y="532"/>
      <point x="875" y="523"/>
      <point x="891" y="523" type="curve" smooth="yes"/>
      <point x="902" y="523"/>
      <point x="915" y="535"/>
      <point x="909" y="558" type="curve" smooth="yes"/>
      <point x="859" y="845" type="line" smooth="yes"/>
      <point x="857" y="852"/>
      <point x="852" y="861"/>
      <point x="835" y="861" type="curve" smooth="yes"/>
      <point x="823" y="861"/>
      <point x="814" y="852"/>
      <point x="817" y="833" type="curve" smooth="yes"/>
      <point x="829" y="729"/>
      <point x="808" y="701"/>
      <point x="754" y="701" type="curve" smooth="yes"/>
    </contour>
    <contour>
      <point x="664" y="0" type="line" smooth="yes"/>
      <point x="697" y="0"/>
      <point x="709" y="-29"/>
      <point x="731" y="-29" type="curve" smooth="yes"/>
      <point x="831" y="-29"/>
      <point x="946" y="136"/>
      <point x="950" y="271" type="curve" smooth="yes"/>
      <point x="951" y="279"/>
      <point x="945" y="285"/>
      <point x="936" y="285" type="curve" smooth="yes"/>
      <point x="930" y="285"/>
      <point x="920" y="279"/>
      <point x="917" y="272" type="curve" smooth="yes"/>
      <point x="860" y="98"/>
      <point x="773" y="37"/>
      <point x="644" y="37" type="curve" smooth="yes"/>
      <point x="289" y="37" type="line" smooth="yes"/>
      <point x="247" y="37"/>
      <point x="225" y="70"/>
      <point x="242" y="125" type="curve" smooth="yes"/>
      <point x="263" y="196"/>
      <point x="507" y="1074"/>
      <point x="593" y="1367" type="curve"/>
      <point x="958" y="1367" type="line" smooth="yes"/>
      <point x="1019" y="1367"/>
      <point x="1066" y="1338"/>
      <point x="1118" y="1200" type="curve" smooth="yes"/>
      <point x="1127" y="1176"/>
      <point x="1136" y="1164"/>
      <point x="1152" y="1164" type="curve" smooth="yes"/>
      <point x="1166" y="1164"/>
      <point x="1178" y="1175"/>
      <point x="1171" y="1200" type="curve" smooth="yes"/>
      <point x="1125" y="1410" type="line" smooth="yes"/>
      <point x="1120" y="1433"/>
      <point x="1115" y="1441"/>
      <point x="1099" y="1441" type="curve" smooth="yes"/>
      <point x="1073" y="1441"/>
      <point x="1045" y="1400"/>
      <point x="1006" y="1400" type="curve" smooth="yes"/>
      <point x="436" y="1400" type="line" smooth="yes"/>
      <point x="418" y="1400"/>
      <point x="406" y="1396"/>
      <point x="405" y="1382" type="curve" smooth="yes"/>
      <point x="405" y="1375"/>
      <point x="415" y="1365"/>
      <point x="435" y="1362" type="curve" smooth="yes"/>
      <point x="492" y="1352" type="line" smooth="yes"/>
      <point x="523" y="1347"/>
      <point x="528" y="1306"/>
      <point x="517" y="1266" type="curve" smooth="yes"/>
      <point x="476" y="1113"/>
      <point x="212" y="202"/>
      <point x="187" y="126" type="curve" smooth="yes"/>
      <point x="172" y="78"/>
      <point x="142" y="62"/>
      <point x="97" y="54" type="curve" smooth="yes"/>
      <point x="25" y="39" type="line" smooth="yes"/>
      <point x="5" y="36"/>
      <point x="-7" y="31"/>
      <point x="-7" y="19" type="curve" smooth="yes"/>
      <point x="-8" y="10"/>
      <point x="0" y="0"/>
      <point x="17" y="0" type="curve" smooth="yes"/>
    </contour>
  </outline>
</glyph>
<glyph name="J" format="2">
  <advance width="541"/>
  <unicode hex="004A"/>
  <outline>
    <contour>
      <point x="554" y="1267" type="curve" smooth="yes"/>
      <point x="572" y="1319"/>
      <point x="594" y="1335"/>
      <point x="647" y="1350" type="curve" smooth="yes"/>
      <point x="702" y="1366" type="line" smooth="yes"/>
      <point x="724" y="1371"/>
      <point x="736" y="1376"/>
      <point x="737" y="1390" type="curve" smooth="yes"/>
      <point x="737" y="1398"/>
      <point x="730" y="1400"/>
      <point x="709" y="1400" type="curve" smooth="yes"/>
      <point x="398" y="1400" type="line" smooth="yes"/>
      <point x="364" y="1400"/>
      <point x="352" y="1396"/>
      <point x="351" y="1384" type="curve" smooth="yes"/>
      <point x="352" y="1372"/>
      <point x="360" y="1364"/>
      <point x="386" y="1361" type="curve" smooth="yes"/>
      <point x="449" y="1352" type="line" smooth="yes"/>
      <point x="500" y="1346"/>
      <point x="507" y="1328"/>
      <point x="496" y="1270" type="curve" smooth="yes"/>
      <point x="481" y="1182"/>
      <point x="178" y="136"/>
      <point x="176" y="131" type="curve" smooth="yes"/>
      <point x="145" y="37"/>
      <point x="127" y="-25"/>
      <point x="125" y="-74" type="curve" smooth="yes"/>
      <point x="121" y="-202"/>
      <point x="72" y="-243"/>
      <point x="26" y="-243" type="curve" smooth="yes"/>
      <point x="-10" y="-243"/>
      <point x="-40" y="-207"/>
      <point x="-83" y="-207" type="curve" smooth="yes"/>
      <point x="-121" y="-207"/>
      <point x="-141" y="-229"/>
      <point x="-142" y="-254" type="curve" smooth="yes"/>
      <point x="-143" y="-290"/>
      <point x="-114" y="-317"/>
      <point x="-44" y="-317" type="curve" smooth="yes"/>
      <point x="56" y="-317"/>
      <point x="130" y="-260"/>
      <point x="169" y="-113" type="curve" smooth="yes"/>
      <point x="243" y="174"/>
      <point x="533" y="1210"/>
    </contour>
  </outline>
</glyph>
<glyph name="K" format="2">
  <advance width="1149"/>
  <unicode hex="004B"/>
  <outline>
    <contour>
      <point x="249" y="148" type="curve" smooth="yes"/>
      <point x="266" y="227"/>
      <point x="519" y="1129"/>
      <point x="570" y="1278" type="curve" smooth="yes"/>
      <point x="581" y="1319"/>
      <point x="609" y="1341"/>
      <point x="661" y="1351" type="curve" smooth="yes"/>
      <point x="721" y="1363" type="line" smooth="yes"/>
      <point x="756" y="1370"/>
      <point x="766" y="1376"/>
      <point x="767" y="1390" type="curve" smooth="yes"/>
      <point x="767" y="1400"/>
      <point x="761" y="1400"/>
      <point x="738" y="1400" type="curve" smooth="yes"/>
      <point x="438" y="1400" type="line" smooth="yes"/>
      <point x="400" y="1400"/>
      <point x="381" y="1401"/>
      <point x="381" y="1389" type="curve" smooth="yes"/>
      <point x="380" y="1373"/>
      <point x="388" y="1367"/>
      <point x="417" y="1361" type="curve" smooth="yes"/>
      <point x="466" y="1351" type="line" smooth="yes"/>
      <point x="513" y="1340"/>
      <point x="518" y="1312"/>
      <point x="505" y="1252" type="curve" smooth="yes"/>
      <point x="472" y="1099"/>
      <point x="219" y="214"/>
      <point x="191" y="145" type="curve" smooth="yes"/>
      <point x="171" y="91"/>
      <point x="138" y="52"/>
      <point x="85" y="44" type="curve" smooth="yes"/>
      <point x="28" y="36" type="line" smooth="yes"/>
      <point x="0" y="33"/>
      <point x="-12" y="24"/>
      <point x="-10" y="14" type="curve" smooth="yes"/>
      <point x="-10" y="2"/>
      <point x="-4" y="0"/>
      <point x="21" y="0" type="curve" smooth="yes"/>
      <point x="330" y="0" type="line" smooth="yes"/>
      <point x="347" y="0"/>
      <point x="367" y="2"/>
      <point x="367" y="11" type="curve" smooth="yes"/>
      <point x="368" y="26"/>
      <point x="360" y="34"/>
      <point x="332" y="38" type="curve" smooth="yes"/>
      <point x="289" y="45" type="line" smooth="yes"/>
      <point x="241" y="52"/>
      <point x="235" y="82"/>
    </contour>
    <contour>
      <point x="632" y="823" type="line"/>
      <point x="860" y="92" type="line" smooth="yes"/>
      <point x="885" y="13"/>
      <point x="924" y="-17"/>
      <point x="972" y="-17" type="curve" smooth="yes"/>
      <point x="1021" y="-17"/>
      <point x="1049" y="2"/>
      <point x="1069" y="29" type="curve" smooth="yes"/>
      <point x="1078" y="40"/>
      <point x="1075" y="61"/>
      <point x="1065" y="66" type="curve" smooth="yes"/>
      <point x="1054" y="73"/>
      <point x="1039" y="68"/>
      <point x="1032" y="52" type="curve" smooth="yes"/>
      <point x="1020" y="32"/>
      <point x="1006" y="22"/>
      <point x="986" y="22" type="curve" smooth="yes"/>
      <point x="957" y="22"/>
      <point x="936" y="36"/>
      <point x="923" y="76" type="curve" smooth="yes"/>
      <point x="680" y="834" type="line"/>
    </contour>
    <contour>
      <point x="303" y="446" type="line"/>
      <point x="1119" y="1265" type="line" smooth="yes"/>
      <point x="1174" y="1319"/>
      <point x="1218" y="1347"/>
      <point x="1249" y="1347" type="curve" smooth="yes"/>
      <point x="1282" y="1347"/>
      <point x="1299" y="1322"/>
      <point x="1343" y="1322" type="curve" smooth="yes"/>
      <point x="1375" y="1322"/>
      <point x="1405" y="1342"/>
      <point x="1406" y="1366" type="curve" smooth="yes"/>
      <point x="1407" y="1391"/>
      <point x="1376" y="1415"/>
      <point x="1332" y="1415" type="curve" smooth="yes"/>
      <point x="1249" y="1415"/>
      <point x="1175" y="1368"/>
      <point x="1069" y="1265" type="curve" smooth="yes"/>
      <point x="302" y="503" type="line"/>
    </contour>
  </outline>
</glyph>
<glyph name="L" format="2">
  <advance width="867"/>
  <unicode hex="004C"/>
  <outline>
    <contour>
      <point x="546" y="0" type="line" smooth="yes"/>
      <point x="584" y="0"/>
      <point x="602" y="-25"/>
      <point x="630" y="-25" type="curve" smooth="yes"/>
      <point x="716" y="-25"/>
      <point x="845" y="135"/>
      <point x="850" y="295" type="curve" smooth="yes"/>
      <point x="850" y="300"/>
      <point x="845" y="304"/>
      <point x="834" y="304" type="curve" smooth="yes"/>
      <point x="817" y="304"/>
      <point x="810" y="288"/>
      <point x="808" y="277" type="curve" smooth="yes"/>
      <point x="760" y="96"/>
      <point x="680" y="41"/>
      <point x="551" y="41" type="curve" smooth="yes"/>
      <point x="282" y="41" type="line" smooth="yes"/>
      <point x="246" y="41"/>
      <point x="227" y="59"/>
      <point x="240" y="108" type="curve" smooth="yes"/>
      <point x="276" y="268"/>
      <point x="531" y="1144"/>
      <point x="569" y="1256" type="curve" smooth="yes"/>
      <point x="587" y="1312"/>
      <point x="610" y="1344"/>
      <point x="653" y="1350" type="curve" smooth="yes"/>
      <point x="725" y="1359" type="line" smooth="yes"/>
      <point x="750" y="1361"/>
      <point x="767" y="1370"/>
      <point x="767" y="1383" type="curve" smooth="yes"/>
      <point x="768" y="1396"/>
      <point x="756" y="1400"/>
      <point x="737" y="1400" type="curve" smooth="yes"/>
      <point x="418" y="1400" type="line" smooth="yes"/>
      <point x="394" y="1400"/>
      <point x="381" y="1396"/>
      <point x="381" y="1389" type="curve" smooth="yes"/>
      <point x="380" y="1372"/>
      <point x="393" y="1367"/>
      <point x="417" y="1362" type="curve" smooth="yes"/>
      <point x="484" y="1345" type="line" smooth="yes"/>
      <point x="510" y="1339"/>
      <point x="520" y="1314"/>
      <point x="512" y="1283" type="curve" smooth="yes"/>
      <point x="475" y="1130"/>
      <point x="261" y="372"/>
      <point x="201" y="166" type="curve" smooth="yes"/>
      <point x="179" y="95"/>
      <point x="148" y="57"/>
      <point x="94" y="48" type="curve" smooth="yes"/>
      <point x="43" y="40" type="line" smooth="yes"/>
      <point x="16" y="37"/>
      <point x="-1" y="33"/>
      <point x="-2" y="19" type="curve" smooth="yes"/>
      <point x="-9" y="7"/>
      <point x="4" y="0"/>
      <point x="28" y="0" type="curve" smooth="yes"/>
    </contour>
  </outline>
</glyph>
<glyph name="M" format="2">
  <advance width="1392"/>
  <unicode hex="004D"/>
  <outline>
    <contour>
      <point x="713" y="274" type="line"/>
      <point x="656" y="613"/>
      <point x="621" y="955"/>
      <point x="575" y="1317" type="curve" smooth="yes"/>
      <point x="568" y="1370"/>
      <point x="550" y="1400"/>
      <point x="522" y="1400" type="curve" smooth="yes"/>
      <point x="421" y="1400" type="line" smooth="yes"/>
      <point x="402" y="1400"/>
      <point x="390" y="1396"/>
      <point x="385" y="1387" type="curve" smooth="yes"/>
      <point x="382" y="1372"/>
      <point x="393" y="1366"/>
      <point x="408" y="1362" type="curve" smooth="yes"/>
      <point x="480" y="1341" type="line" smooth="yes"/>
      <point x="517" y="1331"/>
      <point x="528" y="1278"/>
      <point x="510" y="1221" type="curve" smooth="yes"/>
      <point x="168" y="138" type="line" smooth="yes"/>
      <point x="156" y="104"/>
      <point x="135" y="76"/>
      <point x="81" y="65" type="curve" smooth="yes"/>
      <point x="20" y="52" type="line" smooth="yes"/>
      <point x="-12" y="47"/>
      <point x="-23" y="44"/>
      <point x="-27" y="24" type="curve" smooth="yes"/>
      <point x="-32" y="11"/>
      <point x="-20" y="0"/>
      <point x="5" y="0" type="curve" smooth="yes"/>
      <point x="292" y="0" type="line" smooth="yes"/>
      <point x="318" y="0"/>
      <point x="334" y="5"/>
      <point x="342" y="20" type="curve" smooth="yes"/>
      <point x="346" y="30"/>
      <point x="334" y="37"/>
      <point x="320" y="41" type="curve" smooth="yes"/>
      <point x="239" y="66" type="line" smooth="yes"/>
      <point x="206" y="75"/>
      <point x="202" y="98"/>
      <point x="216" y="130" type="curve" smooth="yes"/>
      <point x="580" y="1284" type="line"/>
      <point x="524" y="1274" type="line"/>
      <point x="574" y="981"/>
      <point x="607" y="642"/>
      <point x="661" y="227" type="curve" smooth="yes"/>
      <point x="664" y="221"/>
      <point x="669" y="204"/>
      <point x="683" y="204" type="curve" smooth="yes"/>
      <point x="698" y="204"/>
      <point x="710" y="217"/>
      <point x="735" y="254" type="curve" smooth="yes"/>
      <point x="1371" y="1274" type="line"/>
      <point x="1341" y="1294" type="line"/>
      <point x="1297" y="1032"/>
      <point x="1141" y="289"/>
      <point x="1107" y="128" type="curve" smooth="yes"/>
      <point x="1099" y="86"/>
      <point x="1065" y="66"/>
      <point x="1025" y="56" type="curve" smooth="yes"/>
      <point x="959" y="39" type="line" smooth="yes"/>
      <point x="944" y="36"/>
      <point x="930" y="37"/>
      <point x="926" y="23" type="curve" smooth="yes"/>
      <point x="923" y="12"/>
      <point x="930" y="0"/>
      <point x="952" y="0" type="curve" smooth="yes"/>
      <point x="1249" y="0" type="line" smooth="yes"/>
      <point x="1270" y="0"/>
      <point x="1280" y="1"/>
      <point x="1285" y="15" type="curve" smooth="yes"/>
      <point x="1289" y="32"/>
      <point x="1278" y="35"/>
      <point x="1261" y="40" type="curve" smooth="yes"/>
      <point x="1200" y="58" type="line" smooth="yes"/>
      <point x="1163" y="70"/>
      <point x="1153" y="88"/>
      <point x="1162" y="132" type="curve" smooth="yes"/>
      <point x="1190" y="295"/>
      <point x="1340" y="1011"/>
      <point x="1389" y="1268" type="curve" smooth="yes"/>
      <point x="1399" y="1316"/>
      <point x="1426" y="1347"/>
      <point x="1463" y="1352" type="curve" smooth="yes"/>
      <point x="1507" y="1358" type="line" smooth="yes"/>
      <point x="1528" y="1360"/>
      <point x="1544" y="1359"/>
      <point x="1549" y="1384" type="curve" smooth="yes"/>
      <point x="1551" y="1392"/>
      <point x="1548" y="1400"/>
      <point x="1525" y="1400" type="curve" smooth="yes"/>
      <point x="1453" y="1400" type="line" smooth="yes"/>
      <point x="1428" y="1400"/>
      <point x="1396" y="1382"/>
      <point x="1374" y="1348" type="curve" smooth="yes"/>
      <point x="714" y="286" type="line"/>
    </contour>
  </outline>
</glyph>
<glyph name="O" format="2">
  <advance width="1370"/>
  <unicode hex="004F"/>
  <anchor x="991" y="1546" name="center"/>
  <outline>
    <contour>
      <point x="983" y="1426" type="curve" smooth="yes"/>
      <point x="682" y="1455"/>
      <point x="334" y="1190"/>
      <point x="203" y="800" type="curve" smooth="yes"/>
      <point x="54" y="345"/>
      <point x="229" y="1"/>
      <point x="528" y="-28" type="curve" smooth="yes"/>
      <point x="889" y="-63"/>
      <point x="1216" y="197"/>
      <point x="1341" y="649" type="curve" smooth="yes"/>
      <point x="1460" y="1083"/>
      <point x="1275" y="1397"/>
    </contour>
    <contour>
      <point x="559" y="15" type="curve" smooth="yes"/>
      <point x="286" y="41"/>
      <point x="118" y="298"/>
      <point x="253" y="784" type="curve" smooth="yes"/>
      <point x="358" y="1152"/>
      <point x="679" y="1409"/>
      <point x="958" y="1381" type="curve" smooth="yes"/>
      <point x="1218" y="1355"/>
      <point x="1413" y="1083"/>
      <point x="1288" y="664" type="curve" smooth="yes"/>
      <point x="1152" y="205"/>
      <point x="849" y="-12"/>
    </contour>
  </outline>
</glyph>
<glyph name="Q" format="2">
  <advance width="1321"/>
  <unicode hex="0051"/>
  <outline>
    <contour>
      <point x="621" y="370" type="curve" smooth="yes"/>
      <point x="480" y="-122"/>
      <point x="618" y="-333"/>
      <point x="877" y="-333" type="curve" smooth="yes"/>
      <point x="931" y="-333"/>
      <point x="975" y="-324"/>
      <point x="988" y="-301" type="curve" smooth="yes"/>
      <point x="1026" y="-236" type="line" smooth="yes"/>
      <point x="1033" y="-223"/>
      <point x="1024" y="-216"/>
      <point x="1016" y="-215" type="curve" smooth="yes"/>
      <point x="1001" y="-215"/>
      <point x="969" y="-260"/>
      <point x="881" y="-260" type="curve" smooth="yes"/>
      <point x="682" y="-260"/>
      <point x="553" y="-66"/>
      <point x="668" y="363" type="curve" smooth="yes"/>
      <point x="676" y="389"/>
      <point x="674" y="410"/>
      <point x="656" y="413" type="curve" smooth="yes"/>
      <point x="635" y="417"/>
      <point x="627" y="388"/>
    </contour>
    <contour>
      <point x="966" y="1430" type="curve" smooth="yes"/>
      <point x="627" y="1427"/>
      <point x="330" y="1149"/>
      <point x="208" y="770" type="curve" smooth="yes"/>
      <point x="53" y="283"/>
      <point x="236" y="-32"/>
      <point x="544" y="-30" type="curve" smooth="yes"/>
      <point x="863" y="-28"/>
      <point x="1171" y="207"/>
      <point x="1302" y="673" type="curve" smooth="yes"/>
      <point x="1419" y="1098"/>
      <point x="1253" y="1433"/>
    </contour>
    <contour>
      <point x="571" y="21" type="curve" smooth="yes"/>
      <point x="270" y="21"/>
      <point x="117" y="256"/>
      <point x="259" y="755" type="curve" smooth="yes"/>
      <point x="366" y="1133"/>
      <point x="650" y="1382"/>
      <point x="938" y="1383" type="curve" smooth="yes"/>
      <point x="1207" y="1385"/>
      <point x="1371" y="1097"/>
      <point x="1249" y="688" type="curve" smooth="yes"/>
      <point x="1107" y="212"/>
      <point x="821" y="22"/>
    </contour>
  </outline>
</glyph>
<glyph name="T" format="2">
  <advance width="895"/>
  <unicode hex="0054"/>
  <outline>
    <contour>
      <point x="500" y="1414" type="curve" smooth="yes"/>
      <point x="326" y="1414"/>
      <point x="241" y="1332"/>
      <point x="236" y="1208" type="curve" smooth="yes"/>
      <point x="235" y="1169"/>
      <point x="253" y="1146"/>
      <point x="284" y="1146" type="curve" smooth="yes"/>
      <point x="313" y="1146"/>
      <point x="332" y="1167"/>
      <point x="332" y="1186" type="curve" smooth="yes"/>
      <point x="334" y="1220"/>
      <point x="306" y="1249"/>
      <point x="306" y="1271" type="curve" smooth="yes"/>
      <point x="309" y="1333"/>
      <point x="354" y="1374"/>
      <point x="503" y="1374" type="curve" smooth="yes"/>
      <point x="656" y="1374"/>
      <point x="932" y="1301"/>
      <point x="1055" y="1301" type="curve" smooth="yes"/>
      <point x="1160" y="1301"/>
      <point x="1219" y="1342"/>
      <point x="1221" y="1404" type="curve" smooth="yes"/>
      <point x="1222" y="1444"/>
      <point x="1207" y="1462"/>
      <point x="1187" y="1462" type="curve" smooth="yes"/>
      <point x="1162" y="1462"/>
      <point x="1137" y="1446"/>
      <point x="1130" y="1412" type="curve" smooth="yes"/>
      <point x="1119" y="1368"/>
      <point x="1092" y="1345"/>
      <point x="1033" y="1345" type="curve" smooth="yes"/>
      <point x="942" y="1345"/>
      <point x="643" y="1414"/>
    </contour>
    <contour>
      <point x="402" y="83" type="curve" smooth="yes"/>
      <point x="437" y="217"/>
      <point x="715" y="1199"/>
      <point x="768" y="1376" type="curve"/>
      <point x="719" y="1384" type="line"/>
      <point x="665" y="1202"/>
      <point x="398" y="248"/>
      <point x="353" y="110" type="curve" smooth="yes"/>
      <point x="341" y="69"/>
      <point x="319" y="59"/>
      <point x="275" y="52" type="curve" smooth="yes"/>
      <point x="203" y="41" type="line" smooth="yes"/>
      <point x="174" y="36"/>
      <point x="158" y="33"/>
      <point x="156" y="19" type="curve" smooth="yes"/>
      <point x="153" y="10"/>
      <point x="163" y="0"/>
      <point x="185" y="0" type="curve" smooth="yes"/>
      <point x="501" y="0" type="line" smooth="yes"/>
      <point x="528" y="0"/>
      <point x="541" y="3"/>
      <point x="546" y="14" type="curve" smooth="yes"/>
      <point x="554" y="29"/>
      <point x="541" y="34"/>
      <point x="523" y="36" type="curve" smooth="yes"/>
      <point x="445" y="50" type="line" smooth="yes"/>
      <point x="412" y="54"/>
      <point x="397" y="63"/>
    </contour>
  </outline>
</glyph>
<glyph name="U" format="2">
  <advance width="1251"/>
  <unicode hex="0055"/>
  <anchor x="916" y="1476" name="center"/>
  <outline>
    <contour>
      <point x="966" y="385" type="line" smooth="yes"/>
      <point x="890" y="134"/>
      <point x="742" y="15"/>
      <point x="541" y="15" type="curve" smooth="yes"/>
      <point x="373" y="15"/>
      <point x="278" y="116"/>
      <point x="285" y="311" type="curve" smooth="yes"/>
      <point x="288" y="387"/>
      <point x="308" y="485"/>
      <point x="337" y="580" type="curve" smooth="yes"/>
      <point x="553" y="1301" type="line" smooth="yes"/>
      <point x="563" y="1330"/>
      <point x="588" y="1339"/>
      <point x="622" y="1346" type="curve" smooth="yes"/>
      <point x="687" y="1360" type="line" smooth="yes"/>
      <point x="729" y="1369"/>
      <point x="741" y="1373"/>
      <point x="741" y="1387" type="curve" smooth="yes"/>
      <point x="742" y="1394"/>
      <point x="734" y="1400"/>
      <point x="713" y="1400" type="curve" smooth="yes"/>
      <point x="425" y="1400" type="line" smooth="yes"/>
      <point x="391" y="1400"/>
      <point x="374" y="1393"/>
      <point x="373" y="1383" type="curve" smooth="yes"/>
      <point x="373" y="1368"/>
      <point x="381" y="1359"/>
      <point x="413" y="1356" type="curve" smooth="yes"/>
      <point x="465" y="1347" type="line" smooth="yes"/>
      <point x="504" y="1340"/>
      <point x="511" y="1319"/>
      <point x="501" y="1291" type="curve" smooth="yes"/>
      <point x="286" y="580" type="line" smooth="yes"/>
      <point x="256" y="482"/>
      <point x="233" y="385"/>
      <point x="231" y="308" type="curve" smooth="yes"/>
      <point x="224" y="114"/>
      <point x="310" y="-30"/>
      <point x="513" y="-30" type="curve" smooth="yes"/>
      <point x="770" y="-30"/>
      <point x="929" y="114"/>
      <point x="1009" y="372" type="curve" smooth="yes"/>
      <point x="1287" y="1286" type="line" smooth="yes"/>
      <point x="1301" y="1329"/>
      <point x="1330" y="1336"/>
      <point x="1372" y="1343" type="curve" smooth="yes"/>
      <point x="1438" y="1360" type="line" smooth="yes"/>
      <point x="1479" y="1368"/>
      <point x="1481" y="1373"/>
      <point x="1481" y="1385" type="curve" smooth="yes"/>
      <point x="1482" y="1393"/>
      <point x="1471" y="1400"/>
      <point x="1452" y="1400" type="curve" smooth="yes"/>
      <point x="1153" y="1400" type="line" smooth="yes"/>
      <point x="1128" y="1400"/>
      <point x="1113" y="1393"/>
      <point x="1112" y="1379" type="curve" smooth="yes"/>
      <point x="1112" y="1366"/>
      <point x="1129" y="1363"/>
      <point x="1155" y="1356" type="curve" smooth="yes"/>
      <point x="1199" y="1342" type="line" smooth="yes"/>
      <point x="1239" y="1328"/>
      <point x="1246" y="1315"/>
      <point x="1235" y="1282" type="curve" smooth="yes"/>
    </contour>
  </outline>
</glyph>
<glyph name="V" format="2">
  <advance width="1008"/>
  <unicode hex="0056"/>
  <outline>
    <contour>
      <point x="977" y="1384" type="curve" smooth="yes"/>
      <point x="977" y="1371"/>
      <point x="991" y="1361"/>
      <point x="1012" y="1357" type="curve" smooth="yes"/>
      <point x="1075" y="1344" type="line" smooth="yes"/>
      <point x="1111" y="1337"/>
      <point x="1123" y="1283"/>
      <point x="1093" y="1243" type="curve" smooth="yes"/>
      <point x="370" y="111" type="line"/>
      <point x="392" y="114" type="line"/>
      <point x="395" y="282"/>
      <point x="411" y="1125"/>
      <point x="417" y="1279" type="curve" smooth="yes"/>
      <point x="418" y="1315"/>
      <point x="432" y="1342"/>
      <point x="471" y="1348" type="curve" smooth="yes"/>
      <point x="562" y="1362" type="line" smooth="yes"/>
      <point x="579" y="1363"/>
      <point x="590" y="1374"/>
      <point x="590" y="1383" type="curve" smooth="yes"/>
      <point x="591" y="1392"/>
      <point x="583" y="1400"/>
      <point x="569" y="1400" type="curve" smooth="yes"/>
      <point x="267" y="1400" type="line" smooth="yes"/>
      <point x="255" y="1400"/>
      <point x="244" y="1394"/>
      <point x="243" y="1385" type="curve" smooth="yes"/>
      <point x="243" y="1375"/>
      <point x="247" y="1364"/>
      <point x="270" y="1363" type="curve" smooth="yes"/>
      <point x="314" y="1355" type="line" smooth="yes"/>
      <point x="347" y="1351"/>
      <point x="359" y="1319"/>
      <point x="359" y="1272" type="curve" smooth="yes"/>
      <point x="361" y="1122"/>
      <point x="344" y="276"/>
      <point x="338" y="175" type="curve" smooth="yes"/>
      <point x="337" y="133"/>
      <point x="330" y="125"/>
      <point x="314" y="81" type="curve" smooth="yes"/>
      <point x="304" y="59" type="line" smooth="yes"/>
      <point x="293" y="27"/>
      <point x="306" y="0"/>
      <point x="328" y="0" type="curve" smooth="yes"/>
      <point x="349" y="0" type="line" smooth="yes"/>
      <point x="379" y="0"/>
      <point x="404" y="25"/>
      <point x="413" y="57" type="curve" smooth="yes"/>
      <point x="415" y="68" type="line" smooth="yes"/>
      <point x="425" y="104"/>
      <point x="441" y="134"/>
      <point x="460" y="163" type="curve" smooth="yes"/>
      <point x="1155" y="1264" type="line" smooth="yes"/>
      <point x="1191" y="1318"/>
      <point x="1224" y="1354"/>
      <point x="1286" y="1363" type="curve" smooth="yes"/>
      <point x="1324" y="1368" type="line" smooth="yes"/>
      <point x="1348" y="1368"/>
      <point x="1358" y="1383"/>
      <point x="1359" y="1392" type="curve" smooth="yes"/>
      <point x="1359" y="1398"/>
      <point x="1350" y="1400"/>
      <point x="1327" y="1400" type="curve" smooth="yes"/>
      <point x="1011" y="1400" type="line" smooth="yes"/>
      <point x="993" y="1400"/>
      <point x="978" y="1393"/>
    </contour>
  </outline>
</glyph>
<glyph name="Y" format="2">
  <advance width="963"/>
  <unicode hex="0059"/>
  <anchor x="831" y="1496" name="center"/>
  <outline>
    <contour>
      <point x="520" y="502" type="line"/>
      <point x="536" y="492" type="line"/>
      <point x="509" y="682"/>
      <point x="447" y="1124"/>
      <point x="424" y="1270" type="curve" smooth="yes"/>
      <point x="410" y="1365"/>
      <point x="375" y="1400"/>
      <point x="295" y="1400" type="curve" smooth="yes"/>
      <point x="252" y="1400" type="line" smooth="yes"/>
      <point x="235" y="1400"/>
      <point x="218" y="1390"/>
      <point x="218" y="1381" type="curve" smooth="yes"/>
      <point x="219" y="1368"/>
      <point x="233" y="1354"/>
      <point x="267" y="1353" type="curve" smooth="yes"/>
      <point x="328" y="1347"/>
      <point x="368" y="1314"/>
      <point x="376" y="1253" type="curve" smooth="yes"/>
      <point x="393" y="1114"/>
      <point x="459" y="684"/>
      <point x="480" y="521" type="curve" smooth="yes"/>
      <point x="485" y="484"/>
      <point x="481" y="453"/>
      <point x="468" y="414" type="curve" smooth="yes"/>
      <point x="390" y="154" type="line" smooth="yes"/>
      <point x="369" y="86"/>
      <point x="334" y="50"/>
      <point x="285" y="44" type="curve" smooth="yes"/>
      <point x="228" y="36" type="line" smooth="yes"/>
      <point x="202" y="35"/>
      <point x="188" y="25"/>
      <point x="188" y="15" type="curve" smooth="yes"/>
      <point x="187" y="5"/>
      <point x="196" y="0"/>
      <point x="212" y="0" type="curve" smooth="yes"/>
      <point x="526" y="0" type="line" smooth="yes"/>
      <point x="555" y="0"/>
      <point x="566" y="6"/>
      <point x="566" y="14" type="curve" smooth="yes"/>
      <point x="567" y="28"/>
      <point x="559" y="36"/>
      <point x="533" y="38" type="curve" smooth="yes"/>
      <point x="477" y="49" type="line" smooth="yes"/>
      <point x="438" y="56"/>
      <point x="433" y="96"/>
      <point x="447" y="145" type="curve" smooth="yes"/>
      <point x="529" y="429" type="line" smooth="yes"/>
      <point x="539" y="459"/>
      <point x="550" y="480"/>
      <point x="578" y="520" type="curve" smooth="yes"/>
      <point x="974" y="1134" type="line" smooth="yes"/>
      <point x="1073" y="1286"/>
      <point x="1150" y="1332"/>
      <point x="1199" y="1339" type="curve" smooth="yes"/>
      <point x="1270" y="1348"/>
      <point x="1295" y="1367"/>
      <point x="1296" y="1395" type="curve" smooth="yes"/>
      <point x="1296" y="1406"/>
      <point x="1280" y="1422"/>
      <point x="1233" y="1422" type="curve" smooth="yes"/>
      <point x="1150" y="1422"/>
      <point x="1076" y="1362"/>
      <point x="942" y="1155" type="curve" smooth="yes"/>
    </contour>
  </outline>
</glyph>
<glyph name="Z" format="2">
  <advance width="1020"/>
  <unicode hex="005A"/>
  <outline>
    <contour>
      <point x="644" y="0" type="line" smooth="yes"/>
      <point x="668" y="0"/>
      <point x="691" y="-24"/>
      <point x="714" y="-24" type="curve" smooth="yes"/>
      <point x="796" y="-24"/>
      <point x="919" y="118"/>
      <point x="924" y="266" type="curve" smooth="yes"/>
      <point x="924" y="268"/>
      <point x="918" y="273"/>
      <point x="908" y="273" type="curve" smooth="yes"/>
      <point x="898" y="273"/>
      <point x="890" y="262"/>
      <point x="886" y="249" type="curve" smooth="yes"/>
      <point x="830" y="94"/>
      <point x="740" y="36"/>
      <point x="629" y="36" type="curve" smooth="yes"/>
      <point x="63" y="36" type="line"/>
      <point x="76" y="22" type="line"/>
      <point x="272" y="265"/>
      <point x="1047" y="1201"/>
      <point x="1175" y="1354" type="curve" smooth="yes"/>
      <point x="1192" y="1370"/>
      <point x="1200" y="1380"/>
      <point x="1200" y="1384" type="curve" smooth="yes"/>
      <point x="1201" y="1391"/>
      <point x="1194" y="1399"/>
      <point x="1172" y="1399" type="curve" smooth="yes"/>
      <point x="660" y="1399" type="line" smooth="yes"/>
      <point x="604" y="1399"/>
      <point x="598" y="1427"/>
      <point x="555" y="1427" type="curve" smooth="yes"/>
      <point x="542" y="1427"/>
      <point x="526" y="1415"/>
      <point x="509" y="1395" type="curve" smooth="yes"/>
      <point x="386" y="1229" type="line" smooth="yes"/>
      <point x="361" y="1199"/>
      <point x="360" y="1186"/>
      <point x="373" y="1181" type="curve" smooth="yes"/>
      <point x="386" y="1177"/>
      <point x="406" y="1188"/>
      <point x="424" y="1206" type="curve" smooth="yes"/>
      <point x="520" y="1326"/>
      <point x="579" y="1362"/>
      <point x="631" y="1362" type="curve" smooth="yes"/>
      <point x="1143" y="1361" type="line"/>
      <point x="1127" y="1371" type="line"/>
      <point x="933" y="1128"/>
      <point x="216" y="263"/>
      <point x="22" y="48" type="curve" smooth="yes"/>
      <point x="7" y="35"/>
      <point x="2" y="29"/>
      <point x="1" y="14" type="curve" smooth="yes"/>
      <point x="1" y="5"/>
      <point x="11" y="0"/>
      <point x="34" y="0" type="curve" smooth="yes"/>
    </contour>
  </outline>
</glyph>
<glyph name="a" format="2">
  <advance width="823"/>
  <unicode hex="0061"/>
  <anchor x="675" y="906" name="center"/>
  <outline>
    <contour>
      <point x="600" y="98" type="curve" smooth="yes"/>
      <point x="754" y="694" type="line" smooth="yes"/>
      <point x="761" y="721"/>
      <point x="790" y="745"/>
      <point x="791" y="773" type="curve" smooth="yes"/>
      <point x="792" y="814"/>
      <point x="736" y="838"/>
      <point x="652" y="838" type="curve" smooth="yes"/>
      <point x="379" y="838"/>
      <point x="74" y="520"/>
      <point x="62" y="174" type="curve" smooth="yes"/>
      <point x="58" y="43"/>
      <point x="115" y="-15"/>
      <point x="200" y="-15" type="curve" smooth="yes"/>
      <point x="349" y="-15"/>
      <point x="526" y="153"/>
      <point x="661" y="484" type="curve"/>
      <point x="651" y="482" type="line"/>
      <point x="547" y="155"/>
      <point x="531" y="116"/>
      <point x="530" y="75" type="curve" smooth="yes"/>
      <point x="528" y="17"/>
      <point x="551" y="-13"/>
      <point x="601" y="-13" type="curve" smooth="yes"/>
      <point x="683" y="-13"/>
      <point x="750" y="52"/>
      <point x="751" y="86" type="curve" smooth="yes"/>
      <point x="751" y="95"/>
      <point x="745" y="98"/>
      <point x="736" y="98" type="curve" smooth="yes"/>
      <point x="727" y="98"/>
      <point x="717" y="92"/>
      <point x="704" y="73" type="curve" smooth="yes"/>
      <point x="686" y="49"/>
      <point x="655" y="40"/>
      <point x="638" y="40" type="curve" smooth="yes"/>
      <point x="603" y="40"/>
      <point x="591" y="63"/>
    </contour>
    <contour>
      <point x="128" y="199" type="curve" smooth="yes"/>
      <point x="138" y="498"/>
      <point x="409" y="792"/>
      <point x="626" y="792" type="curve" smooth="yes"/>
      <point x="679" y="792"/>
      <point x="705" y="775"/>
      <point x="703" y="730" type="curve" smooth="yes"/>
      <point x="696" y="515"/>
      <point x="408" y="29"/>
      <point x="228" y="29" type="curve" smooth="yes"/>
      <point x="158" y="29"/>
      <point x="124" y="77"/>
    </contour>
  </outline>
</glyph>
<glyph name="b" format="2">
  <advance width="838"/>
  <unicode hex="0062"/>
  <outline>
    <contour>
      <point x="356" y="868" type="line" smooth="yes"/>
      <point x="429" y="1119"/>
      <point x="567" y="1244"/>
      <point x="684" y="1244" type="curve" smooth="yes"/>
      <point x="751" y="1244"/>
      <point x="792" y="1218"/>
      <point x="837" y="1218" type="curve" smooth="yes"/>
      <point x="875" y="1218"/>
      <point x="895" y="1231"/>
      <point x="896" y="1252" type="curve" smooth="yes"/>
      <point x="897" y="1281"/>
      <point x="871" y="1303"/>
      <point x="799" y="1303" type="curve" smooth="yes"/>
      <point x="555" y="1303"/>
      <point x="382" y="1154"/>
      <point x="298" y="868" type="curve" smooth="yes"/>
      <point x="64" y="70" type="line" smooth="yes"/>
      <point x="44" y="9"/>
      <point x="53" y="-4"/>
      <point x="72" y="-4" type="curve" smooth="yes"/>
      <point x="84" y="-4"/>
      <point x="94" y="5"/>
      <point x="100" y="18" type="curve" smooth="yes"/>
      <point x="161" y="186" type="line"/>
      <point x="135" y="192" type="line"/>
      <point x="130" y="59"/>
      <point x="181" y="-13"/>
      <point x="317" y="-13" type="curve" smooth="yes"/>
      <point x="536" y="-13"/>
      <point x="804" y="240"/>
      <point x="818" y="638" type="curve" smooth="yes"/>
      <point x="823" y="761"/>
      <point x="769" y="836"/>
      <point x="662" y="836" type="curve" smooth="yes"/>
      <point x="470" y="836"/>
      <point x="275" y="623"/>
      <point x="189" y="401" type="curve"/>
      <point x="220" y="401" type="line"/>
    </contour>
    <contour>
      <point x="629" y="792" type="curve" smooth="yes"/>
      <point x="708" y="792"/>
      <point x="758" y="725"/>
      <point x="754" y="606" type="curve" smooth="yes"/>
      <point x="742" y="263"/>
      <point x="502" y="32"/>
      <point x="326" y="32" type="curve" smooth="yes"/>
      <point x="229" y="32"/>
      <point x="177" y="81"/>
      <point x="181" y="198" type="curve" smooth="yes"/>
      <point x="189" y="439"/>
      <point x="441" y="792"/>
    </contour>
  </outline>
</glyph>
<glyph name="c" format="2">
  <advance width="664"/>
  <unicode hex="0063"/>
  <anchor x="548" y="1016" name="center"/>
  <outline>
    <contour>
      <point x="490" y="798" type="curve" smooth="yes"/>
      <point x="562" y="798"/>
      <point x="604" y="753"/>
      <point x="602" y="690" type="curve" smooth="yes"/>
      <point x="601" y="672"/>
      <point x="594" y="650"/>
      <point x="593" y="637" type="curve" smooth="yes"/>
      <point x="592" y="613"/>
      <point x="606" y="596"/>
      <point x="628" y="596" type="curve" smooth="yes"/>
      <point x="658" y="596"/>
      <point x="684" y="626"/>
      <point x="686" y="675" type="curve" smooth="yes"/>
      <point x="689" y="764"/>
      <point x="634" y="839"/>
      <point x="521" y="839" type="curve" smooth="yes"/>
      <point x="280" y="839"/>
      <point x="77" y="556"/>
      <point x="67" y="244" type="curve" smooth="yes"/>
      <point x="61" y="93"/>
      <point x="130" y="-13"/>
      <point x="267" y="-13" type="curve" smooth="yes"/>
      <point x="470" y="-13"/>
      <point x="599" y="153"/>
      <point x="603" y="263" type="curve" smooth="yes"/>
      <point x="603" y="271"/>
      <point x="598" y="278"/>
      <point x="588" y="278" type="curve" smooth="yes"/>
      <point x="576" y="278"/>
      <point x="563" y="268"/>
      <point x="558" y="248" type="curve" smooth="yes"/>
      <point x="517" y="112"/>
      <point x="414" y="33"/>
      <point x="298" y="33" type="curve" smooth="yes"/>
      <point x="200" y="33"/>
      <point x="132" y="110"/>
      <point x="137" y="261" type="curve" smooth="yes"/>
      <point x="147" y="551"/>
      <point x="311" y="798"/>
    </contour>
  </outline>
</glyph>
<glyph name="d" format="2">
  <advance width="849"/>
  <unicode hex="0064"/>
  <outline>
    <contour>
      <point x="780" y="776" type="line"/>
      <point x="753" y="814"/>
      <point x="706" y="839"/>
      <point x="631" y="839" type="curve" smooth="yes"/>
      <point x="359" y="839"/>
      <point x="67" y="536"/>
      <point x="54" y="164" type="curve" smooth="yes"/>
      <point x="49" y="32"/>
      <point x="107" y="-13"/>
      <point x="191" y="-13" type="curve" smooth="yes"/>
      <point x="327" y="-13"/>
      <point x="501" y="131"/>
      <point x="623" y="385" type="curve"/>
      <point x="607" y="386" type="line"/>
      <point x="528" y="155"/>
      <point x="518" y="111"/>
      <point x="516" y="66" type="curve" smooth="yes"/>
      <point x="514" y="10"/>
      <point x="539" y="-12"/>
      <point x="591" y="-12" type="curve" smooth="yes"/>
      <point x="674" y="-12"/>
      <point x="737" y="46"/>
      <point x="738" y="81" type="curve" smooth="yes"/>
      <point x="738" y="90"/>
      <point x="733" y="99"/>
      <point x="722" y="98" type="curve" smooth="yes"/>
      <point x="711" y="98"/>
      <point x="705" y="89"/>
      <point x="698" y="80" type="curve" smooth="yes"/>
      <point x="679" y="52"/>
      <point x="658" y="39"/>
      <point x="627" y="39" type="curve" smooth="yes"/>
      <point x="575" y="39"/>
      <point x="582" y="105"/>
      <point x="635" y="276" type="curve" smooth="yes"/>
      <point x="881" y="1084" type="line" smooth="yes"/>
      <point x="885" y="1093"/>
      <point x="887" y="1112"/>
      <point x="888" y="1120" type="curve" smooth="yes"/>
      <point x="903" y="1204"/>
      <point x="964" y="1246"/>
      <point x="1018" y="1246" type="curve" smooth="yes"/>
      <point x="1064" y="1246"/>
      <point x="1088" y="1218"/>
      <point x="1121" y="1218" type="curve" smooth="yes"/>
      <point x="1145" y="1218"/>
      <point x="1160" y="1235"/>
      <point x="1161" y="1249" type="curve" smooth="yes"/>
      <point x="1162" y="1277"/>
      <point x="1128" y="1300"/>
      <point x="1073" y="1300" type="curve" smooth="yes"/>
      <point x="953" y="1300"/>
      <point x="880" y="1233"/>
      <point x="841" y="1119" type="curve" smooth="yes"/>
      <point x="668" y="592" type="line" smooth="yes"/>
      <point x="570" y="285"/>
      <point x="352" y="42"/>
      <point x="219" y="42" type="curve" smooth="yes"/>
      <point x="156" y="42"/>
      <point x="114" y="86"/>
      <point x="117" y="180" type="curve" smooth="yes"/>
      <point x="128" y="499"/>
      <point x="379" y="795"/>
      <point x="601" y="795" type="curve" smooth="yes"/>
      <point x="669" y="795"/>
      <point x="710" y="780"/>
      <point x="746" y="737" type="curve"/>
    </contour>
  </outline>
</glyph>
<glyph name="e" format="2">
  <advance width="710"/>
  <unicode hex="0065"/>
  <anchor x="526" y="921" name="center"/>
  <outline>
    <contour>
      <point x="113" y="376" type="curve"/>
      <point x="120" y="343" type="line"/>
      <point x="120" y="343"/>
      <point x="492" y="520"/>
      <point x="683" y="608" type="curve" smooth="yes"/>
      <point x="699" y="615"/>
      <point x="710" y="622"/>
      <point x="710" y="637" type="curve" smooth="yes"/>
      <point x="711" y="657"/>
      <point x="699" y="663"/>
      <point x="684" y="657" type="curve" smooth="yes"/>
      <point x="672" y="653"/>
      <point x="663" y="658"/>
      <point x="663" y="666" type="curve" smooth="yes"/>
      <point x="667" y="763"/>
      <point x="614" y="839"/>
      <point x="511" y="839" type="curve" smooth="yes"/>
      <point x="302" y="839"/>
      <point x="76" y="531"/>
      <point x="65" y="233" type="curve" smooth="yes"/>
      <point x="60" y="81"/>
      <point x="142" y="-13"/>
      <point x="282" y="-13" type="curve" smooth="yes"/>
      <point x="487" y="-13"/>
      <point x="628" y="138"/>
      <point x="632" y="247" type="curve" smooth="yes"/>
      <point x="632" y="265"/>
      <point x="628" y="273"/>
      <point x="618" y="273" type="curve" smooth="yes"/>
      <point x="610" y="273"/>
      <point x="603" y="268"/>
      <point x="598" y="255" type="curve" smooth="yes"/>
      <point x="544" y="109"/>
      <point x="431" y="33"/>
      <point x="317" y="33" type="curve" smooth="yes"/>
      <point x="201" y="33"/>
      <point x="126" y="112"/>
      <point x="132" y="287" type="curve" smooth="yes"/>
      <point x="141" y="530"/>
      <point x="347" y="799"/>
      <point x="483" y="799" type="curve" smooth="yes"/>
      <point x="554" y="799"/>
      <point x="598" y="742"/>
      <point x="595" y="654" type="curve" smooth="yes"/>
      <point x="594" y="625"/>
      <point x="592" y="608"/>
      <point x="584" y="585" type="curve"/>
      <point x="597" y="610" type="line"/>
      <point x="417" y="523"/>
      <point x="113" y="376"/>
    </contour>
  </outline>
</glyph>
<glyph name="f" format="2">
  <advance width="429"/>
  <unicode hex="0066"/>
  <outline>
    <contour>
      <point x="291" y="767" type="line"/>
      <point x="512" y="767" type="line" smooth="yes"/>
      <point x="541" y="767"/>
      <point x="563" y="775"/>
      <point x="564" y="791" type="curve" smooth="yes"/>
      <point x="564" y="798"/>
      <point x="557" y="802"/>
      <point x="545" y="802" type="curve" smooth="yes"/>
      <point x="304" y="802" type="line"/>
    </contour>
    <contour>
      <point x="123" y="784" type="curve" smooth="yes"/>
      <point x="123" y="774"/>
      <point x="129" y="766"/>
      <point x="148" y="768" type="curve" smooth="yes"/>
      <point x="236" y="770"/>
      <point x="258" y="735"/>
      <point x="238" y="667" type="curve" smooth="yes"/>
      <point x="-2" y="-159" type="line" smooth="yes"/>
      <point x="-21" y="-226"/>
      <point x="-26" y="-244"/>
      <point x="-26" y="-270" type="curve" smooth="yes"/>
      <point x="-27" y="-294"/>
      <point x="-12" y="-307"/>
      <point x="10" y="-307" type="curve" smooth="yes"/>
      <point x="42" y="-307"/>
      <point x="72" y="-286"/>
      <point x="73" y="-261" type="curve" smooth="yes"/>
      <point x="74" y="-238"/>
      <point x="57" y="-226"/>
      <point x="58" y="-197" type="curve" smooth="yes"/>
      <point x="59" y="-168"/>
      <point x="63" y="-147"/>
      <point x="71" y="-121" type="curve" smooth="yes"/>
      <point x="356" y="877" type="line" smooth="yes"/>
      <point x="374" y="937"/>
      <point x="390" y="985"/>
      <point x="392" y="1036" type="curve" smooth="yes"/>
      <point x="396" y="1151"/>
      <point x="467" y="1252"/>
      <point x="547" y="1252" type="curve" smooth="yes"/>
      <point x="604" y="1252"/>
      <point x="630" y="1218"/>
      <point x="671" y="1218" type="curve" smooth="yes"/>
      <point x="702" y="1218"/>
      <point x="717" y="1232"/>
      <point x="718" y="1250" type="curve" smooth="yes"/>
      <point x="719" y="1277"/>
      <point x="692" y="1301"/>
      <point x="611" y="1301" type="curve" smooth="yes"/>
      <point x="469" y="1301"/>
      <point x="384" y="1223"/>
      <point x="339" y="1062" type="curve" smooth="yes"/>
      <point x="271" y="802" type="line"/>
      <point x="152" y="802" type="line" smooth="yes"/>
      <point x="135" y="802"/>
      <point x="124" y="794"/>
    </contour>
  </outline>
</glyph>
<glyph name="g" format="2">
  <advance width="773"/>
  <unicode hex="0067"/>
  <outline>
    <contour>
      <point x="575" y="-17" type="curve" smooth="yes"/>
      <point x="743" y="709" type="line" smooth="yes"/>
      <point x="751" y="740"/>
      <point x="772" y="754"/>
      <point x="773" y="787" type="curve" smooth="yes"/>
      <point x="774" y="816"/>
      <point x="729" y="840"/>
      <point x="646" y="840" type="curve" smooth="yes"/>
      <point x="356" y="840"/>
      <point x="68" y="519"/>
      <point x="56" y="171" type="curve" smooth="yes"/>
      <point x="52" y="52"/>
      <point x="100" y="-12"/>
      <point x="185" y="-12" type="curve" smooth="yes"/>
      <point x="357" y="-12"/>
      <point x="551" y="170"/>
      <point x="644" y="422" type="curve"/>
      <point x="616" y="441" type="line"/>
      <point x="507" y="-30" type="line" smooth="yes"/>
      <point x="449" y="-281"/>
      <point x="280" y="-399"/>
      <point x="112" y="-399" type="curve" smooth="yes"/>
      <point x="41" y="-399"/>
      <point x="-7" y="-359"/>
      <point x="-40" y="-359" type="curve" smooth="yes"/>
      <point x="-69" y="-359"/>
      <point x="-91" y="-369"/>
      <point x="-92" y="-395" type="curve" smooth="yes"/>
      <point x="-93" y="-433"/>
      <point x="-52" y="-462"/>
      <point x="49" y="-462" type="curve" smooth="yes"/>
      <point x="291" y="-462"/>
      <point x="507" y="-306"/>
    </contour>
    <contour>
      <point x="120" y="207" type="curve" smooth="yes"/>
      <point x="131" y="505"/>
      <point x="398" y="797"/>
      <point x="605" y="797" type="curve" smooth="yes"/>
      <point x="654" y="797"/>
      <point x="680" y="772"/>
      <point x="678" y="715" type="curve" smooth="yes"/>
      <point x="668" y="437"/>
      <point x="430" y="43"/>
      <point x="236" y="43" type="curve" smooth="yes"/>
      <point x="161" y="43"/>
      <point x="116" y="91"/>
    </contour>
  </outline>
</glyph>
<glyph name="h" format="2">
  <advance width="880"/>
  <unicode hex="0068"/>
  <outline>
    <contour>
      <point x="224" y="312" type="curve" smooth="yes"/>
      <point x="186" y="211"/>
      <point x="163" y="151"/>
      <point x="162" y="109" type="curve" smooth="yes"/>
      <point x="160" y="71"/>
      <point x="171" y="59"/>
      <point x="170" y="35" type="curve" smooth="yes"/>
      <point x="169" y="5"/>
      <point x="138" y="-13"/>
      <point x="107" y="-13" type="curve" smooth="yes"/>
      <point x="66" y="-13"/>
      <point x="62" y="5"/>
      <point x="102" y="135" type="curve" smooth="yes"/>
      <point x="320" y="887" type="line" smooth="yes"/>
      <point x="411" y="1200"/>
      <point x="611" y="1307"/>
      <point x="847" y="1307" type="curve" smooth="yes"/>
      <point x="908" y="1307"/>
      <point x="931" y="1282"/>
      <point x="930" y="1261" type="curve" smooth="yes"/>
      <point x="929" y="1233"/>
      <point x="910" y="1222"/>
      <point x="873" y="1222" type="curve" smooth="yes"/>
      <point x="836" y="1222"/>
      <point x="786" y="1246"/>
      <point x="723" y="1246" type="curve" smooth="yes"/>
      <point x="581" y="1246"/>
      <point x="453" y="1129"/>
      <point x="383" y="891" type="curve" smooth="yes"/>
      <point x="228" y="374" type="line"/>
      <point x="211" y="375" type="line"/>
      <point x="341" y="673"/>
      <point x="552" y="838"/>
      <point x="720" y="838" type="curve" smooth="yes"/>
      <point x="833" y="838"/>
      <point x="820" y="738"/>
      <point x="758" y="571" type="curve" smooth="yes"/>
      <point x="623" y="196" type="line" smooth="yes"/>
      <point x="581" y="82"/>
      <point x="596" y="45"/>
      <point x="640" y="45" type="curve" smooth="yes"/>
      <point x="660" y="45"/>
      <point x="681" y="57"/>
      <point x="700" y="80" type="curve" smooth="yes"/>
      <point x="713" y="96"/>
      <point x="723" y="101"/>
      <point x="734" y="102" type="curve" smooth="yes"/>
      <point x="743" y="103"/>
      <point x="749" y="98"/>
      <point x="749" y="84" type="curve" smooth="yes"/>
      <point x="748" y="53"/>
      <point x="680" y="-14"/>
      <point x="592" y="-14" type="curve" smooth="yes"/>
      <point x="541" y="-14"/>
      <point x="498" y="7"/>
      <point x="561" y="178" type="curve" smooth="yes"/>
      <point x="713" y="596" type="line" smooth="yes"/>
      <point x="747" y="689"/>
      <point x="756" y="788"/>
      <point x="668" y="788" type="curve" smooth="yes"/>
      <point x="546" y="788"/>
      <point x="333" y="612"/>
    </contour>
  </outline>
</glyph>
<glyph name="i" format="2">
  <advance width="454"/>
  <unicode hex="0069"/>
  <outline>
    <contour>
      <point x="212" y="38" type="curve" smooth="yes"/>
      <point x="234" y="38"/>
      <point x="262" y="52"/>
      <point x="289" y="81" type="curve" smooth="yes"/>
      <point x="302" y="95"/>
      <point x="309" y="100"/>
      <point x="320" y="101" type="curve" smooth="yes"/>
      <point x="328" y="102"/>
      <point x="331" y="96"/>
      <point x="331" y="86" type="curve" smooth="yes"/>
      <point x="330" y="47"/>
      <point x="254" y="-14"/>
      <point x="180" y="-14" type="curve" smooth="yes"/>
      <point x="95" y="-14"/>
      <point x="94" y="81"/>
      <point x="142" y="203" type="curve" smooth="yes"/>
      <point x="305" y="630" type="line" smooth="yes"/>
      <point x="341" y="720"/>
      <point x="338" y="788"/>
      <point x="288" y="788" type="curve" smooth="yes"/>
      <point x="263" y="788"/>
      <point x="241" y="771"/>
      <point x="221" y="754" type="curve" smooth="yes"/>
      <point x="206" y="741"/>
      <point x="198" y="728"/>
      <point x="183" y="728" type="curve" smooth="yes"/>
      <point x="173" y="727"/>
      <point x="166" y="730"/>
      <point x="167" y="744" type="curve" smooth="yes"/>
      <point x="168" y="774"/>
      <point x="251" y="838"/>
      <point x="328" y="839" type="curve" smooth="yes"/>
      <point x="391" y="840"/>
      <point x="418" y="765"/>
      <point x="355" y="610" type="curve" smooth="yes"/>
      <point x="210" y="234" type="line" smooth="yes"/>
      <point x="150" y="77"/>
      <point x="165" y="38"/>
    </contour>
    <contour>
      <point x="433" y="1106" type="curve" smooth="yes"/>
      <point x="463" y="1106"/>
      <point x="516" y="1181"/>
      <point x="519" y="1265" type="curve" smooth="yes"/>
      <point x="520" y="1296"/>
      <point x="508" y="1311"/>
      <point x="486" y="1311" type="curve" smooth="yes"/>
      <point x="451" y="1311"/>
      <point x="401" y="1233"/>
      <point x="398" y="1156" type="curve" smooth="yes"/>
      <point x="397" y="1123"/>
      <point x="412" y="1106"/>
    </contour>
  </outline>
</glyph>
<glyph name="j" format="2">
  <advance width="446"/>
  <unicode hex="006A"/>
  <outline>
    <contour>
      <point x="358" y="567" type="line" smooth="yes"/>
      <point x="416" y="752"/>
      <point x="419" y="839"/>
      <point x="324" y="839" type="curve" smooth="yes"/>
      <point x="249" y="839"/>
      <point x="173" y="775"/>
      <point x="172" y="745" type="curve" smooth="yes"/>
      <point x="172" y="735"/>
      <point x="177" y="728"/>
      <point x="189" y="729" type="curve" smooth="yes"/>
      <point x="200" y="729"/>
      <point x="207" y="733"/>
      <point x="217" y="743" type="curve" smooth="yes"/>
      <point x="241" y="771"/>
      <point x="271" y="788"/>
      <point x="296" y="788" type="curve" smooth="yes"/>
      <point x="345" y="788"/>
      <point x="342" y="704"/>
      <point x="298" y="569" type="curve" smooth="yes"/>
      <point x="76" y="-120" type="line" smooth="yes"/>
      <point x="64" y="-152"/>
      <point x="61" y="-170"/>
      <point x="56" y="-203" type="curve" smooth="yes"/>
      <point x="39" y="-328"/>
      <point x="-26" y="-398"/>
      <point x="-88" y="-398" type="curve" smooth="yes"/>
      <point x="-133" y="-398"/>
      <point x="-147" y="-377"/>
      <point x="-183" y="-377" type="curve" smooth="yes"/>
      <point x="-219" y="-377"/>
      <point x="-236" y="-397"/>
      <point x="-237" y="-419" type="curve" smooth="yes"/>
      <point x="-237" y="-443"/>
      <point x="-210" y="-466"/>
      <point x="-153" y="-466" type="curve" smooth="yes"/>
      <point x="-34" y="-466"/>
      <point x="50" y="-397"/>
      <point x="105" y="-230" type="curve" smooth="yes"/>
    </contour>
    <contour>
      <point x="446" y="1106" type="curve" smooth="yes"/>
      <point x="476" y="1106"/>
      <point x="529" y="1181"/>
      <point x="532" y="1265" type="curve" smooth="yes"/>
      <point x="533" y="1296"/>
      <point x="521" y="1311"/>
      <point x="499" y="1311" type="curve" smooth="yes"/>
      <point x="464" y="1311"/>
      <point x="414" y="1233"/>
      <point x="411" y="1156" type="curve" smooth="yes"/>
      <point x="410" y="1123"/>
      <point x="425" y="1106"/>
    </contour>
  </outline>
</glyph>
<glyph name="k" format="2">
  <advance width="846"/>
  <unicode hex="006B"/>
  <outline>
    <contour>
      <point x="213" y="431" type="line"/>
      <point x="334" y="696"/>
      <point x="544" y="854"/>
      <point x="701" y="838" type="curve" smooth="yes"/>
      <point x="785" y="830"/>
      <point x="837" y="776"/>
      <point x="824" y="675" type="curve" smooth="yes"/>
      <point x="804" y="529"/>
      <point x="592" y="374"/>
      <point x="185" y="284" type="curve"/>
      <point x="192" y="330" type="line"/>
      <point x="587" y="431"/>
      <point x="738" y="552"/>
      <point x="761" y="681" type="curve" smooth="yes"/>
      <point x="773" y="745"/>
      <point x="745" y="792"/>
      <point x="681" y="799" type="curve" smooth="yes"/>
      <point x="543" y="817"/>
      <point x="285" y="576"/>
      <point x="216" y="331" type="curve" smooth="yes"/>
      <point x="162" y="141"/>
      <point x="160" y="119"/>
      <point x="159" y="88" type="curve" smooth="yes"/>
      <point x="158" y="62"/>
      <point x="163" y="52"/>
      <point x="162" y="34" type="curve" smooth="yes"/>
      <point x="161" y="8"/>
      <point x="134" y="-9"/>
      <point x="103" y="-9" type="curve" smooth="yes"/>
      <point x="84" y="-9"/>
      <point x="71" y="3"/>
      <point x="72" y="23" type="curve" smooth="yes"/>
      <point x="72" y="35"/>
      <point x="76" y="50"/>
      <point x="81" y="67" type="curve" smooth="yes"/>
      <point x="315" y="865" type="line" smooth="yes"/>
      <point x="402" y="1157"/>
      <point x="583" y="1303"/>
      <point x="831" y="1303" type="curve" smooth="yes"/>
      <point x="890" y="1303"/>
      <point x="920" y="1281"/>
      <point x="919" y="1259" type="curve" smooth="yes"/>
      <point x="918" y="1238"/>
      <point x="899" y="1218"/>
      <point x="865" y="1218" type="curve" smooth="yes"/>
      <point x="827" y="1218"/>
      <point x="770" y="1243"/>
      <point x="717" y="1243" type="curve" smooth="yes"/>
      <point x="576" y="1243"/>
      <point x="433" y="1092"/>
      <point x="366" y="850" type="curve" smooth="yes"/>
      <point x="286" y="565"/>
      <point x="251" y="491"/>
      <point x="238" y="415" type="curve"/>
    </contour>
    <contour>
      <point x="428" y="367" type="line"/>
      <point x="485" y="393" type="line"/>
      <point x="556" y="144" type="line" smooth="yes"/>
      <point x="576" y="76"/>
      <point x="599" y="53"/>
      <point x="630" y="47" type="curve" smooth="yes"/>
      <point x="652" y="42"/>
      <point x="673" y="59"/>
      <point x="687" y="88" type="curve" smooth="yes"/>
      <point x="691" y="97"/>
      <point x="702" y="103"/>
      <point x="712" y="102" type="curve" smooth="yes"/>
      <point x="722" y="99"/>
      <point x="727" y="89"/>
      <point x="721" y="70" type="curve" smooth="yes"/>
      <point x="710" y="17"/>
      <point x="670" y="-21"/>
      <point x="611" y="-13" type="curve" smooth="yes"/>
      <point x="560" y="-6"/>
      <point x="532" y="27"/>
      <point x="505" y="112" type="curve" smooth="yes"/>
    </contour>
  </outline>
</glyph>
<glyph name="l" format="2">
  <advance width="444"/>
  <unicode hex="006C"/>
  <outline>
    <contour>
      <point x="632" y="1300" type="curve" smooth="yes"/>
      <point x="511" y="1300"/>
      <point x="428" y="1227"/>
      <point x="362" y="1023" type="curve" smooth="yes"/>
      <point x="133" y="309" type="line" smooth="yes"/>
      <point x="68" y="105"/>
      <point x="54" y="-13"/>
      <point x="160" y="-13" type="curve" smooth="yes"/>
      <point x="259" y="-13"/>
      <point x="376" y="75"/>
      <point x="378" y="138" type="curve" smooth="yes"/>
      <point x="378" y="148"/>
      <point x="371" y="156"/>
      <point x="360" y="155" type="curve" smooth="yes"/>
      <point x="351" y="155"/>
      <point x="346" y="151"/>
      <point x="339" y="140" type="curve" smooth="yes"/>
      <point x="308" y="93"/>
      <point x="262" y="48"/>
      <point x="214" y="48" type="curve" smooth="yes"/>
      <point x="136" y="48"/>
      <point x="141" y="146"/>
      <point x="192" y="307" type="curve" smooth="yes"/>
      <point x="395" y="954" type="line" smooth="yes"/>
      <point x="415" y="1010"/>
      <point x="423" y="1034"/>
      <point x="434" y="1080" type="curve" smooth="yes"/>
      <point x="452" y="1175"/>
      <point x="507" y="1236"/>
      <point x="564" y="1236" type="curve" smooth="yes"/>
      <point x="616" y="1236"/>
      <point x="632" y="1208"/>
      <point x="673" y="1208" type="curve" smooth="yes"/>
      <point x="708" y="1208"/>
      <point x="723" y="1229"/>
      <point x="724" y="1250" type="curve" smooth="yes"/>
      <point x="725" y="1277"/>
      <point x="695" y="1300"/>
    </contour>
  </outline>
</glyph>
<glyph name="m" format="2">
  <advance width="1316"/>
  <unicode hex="006D"/>
  <outline>
    <contour>
      <point x="559" y="135" type="line" smooth="yes"/>
      <point x="539" y="87"/>
      <point x="508" y="-14"/>
      <point x="559" y="-14" type="curve" smooth="yes"/>
      <point x="596" y="-14"/>
      <point x="627" y="8"/>
      <point x="628" y="38" type="curve" smooth="yes"/>
      <point x="629" y="66"/>
      <point x="618" y="87"/>
      <point x="619" y="112" type="curve" smooth="yes"/>
      <point x="620" y="140"/>
      <point x="631" y="167"/>
      <point x="653" y="236" type="curve" smooth="yes"/>
      <point x="775" y="615"/>
      <point x="967" y="788"/>
      <point x="1097" y="788" type="curve" smooth="yes"/>
      <point x="1185" y="788"/>
      <point x="1183" y="689"/>
      <point x="1149" y="600" type="curve" smooth="yes"/>
      <point x="1003" y="204" type="line" smooth="yes"/>
      <point x="948" y="62"/>
      <point x="927" y="-13"/>
      <point x="1033" y="-13" type="curve" smooth="yes"/>
      <point x="1110" y="-13"/>
      <point x="1180" y="50"/>
      <point x="1181" y="83" type="curve" smooth="yes"/>
      <point x="1181" y="95"/>
      <point x="1174" y="97"/>
      <point x="1164" y="96" type="curve" smooth="yes"/>
      <point x="1157" y="95"/>
      <point x="1147" y="88"/>
      <point x="1133" y="72" type="curve" smooth="yes"/>
      <point x="1110" y="46"/>
      <point x="1088" y="41"/>
      <point x="1070" y="41" type="curve" smooth="yes"/>
      <point x="1023" y="41"/>
      <point x="1017" y="80"/>
      <point x="1060" y="201" type="curve" smooth="yes"/>
      <point x="1196" y="585" type="line" smooth="yes"/>
      <point x="1241" y="702"/>
      <point x="1275" y="838"/>
      <point x="1144" y="838" type="curve" smooth="yes"/>
      <point x="977" y="838"/>
      <point x="734" y="611"/>
      <point x="637" y="286" type="curve"/>
      <point x="666" y="284" type="line"/>
      <point x="705" y="436"/>
      <point x="805" y="638"/>
      <point x="808" y="712" type="curve" smooth="yes"/>
      <point x="811" y="789"/>
      <point x="778" y="838"/>
      <point x="719" y="838" type="curve" smooth="yes"/>
      <point x="561" y="838"/>
      <point x="344" y="661"/>
      <point x="212" y="286" type="curve"/>
      <point x="236" y="282" type="line"/>
      <point x="283" y="514"/>
      <point x="387" y="637"/>
      <point x="392" y="767" type="curve" smooth="yes"/>
      <point x="393" y="811"/>
      <point x="367" y="838"/>
      <point x="324" y="838" type="curve" smooth="yes"/>
      <point x="248" y="838"/>
      <point x="171" y="778"/>
      <point x="170" y="747" type="curve" smooth="yes"/>
      <point x="170" y="734"/>
      <point x="174" y="728"/>
      <point x="184" y="729" type="curve" smooth="yes"/>
      <point x="198" y="729"/>
      <point x="209" y="739"/>
      <point x="218" y="755" type="curve" smooth="yes"/>
      <point x="234" y="779"/>
      <point x="257" y="788"/>
      <point x="282" y="788" type="curve" smooth="yes"/>
      <point x="345" y="788"/>
      <point x="330" y="698"/>
      <point x="301" y="615" type="curve" smooth="yes"/>
      <point x="135" y="144" type="line" smooth="yes"/>
      <point x="97" y="42"/>
      <point x="85" y="-14"/>
      <point x="132" y="-14" type="curve" smooth="yes"/>
      <point x="171" y="-14"/>
      <point x="200" y="6"/>
      <point x="201" y="40" type="curve" smooth="yes"/>
      <point x="202" y="63"/>
      <point x="191" y="87"/>
      <point x="192" y="105" type="curve" smooth="yes"/>
      <point x="193" y="137"/>
      <point x="204" y="176"/>
      <point x="250" y="303" type="curve" smooth="yes"/>
      <point x="355" y="589"/>
      <point x="535" y="789"/>
      <point x="668" y="789" type="curve" smooth="yes"/>
      <point x="750" y="789"/>
      <point x="760" y="701"/>
      <point x="726" y="604" type="curve" smooth="yes"/>
    </contour>
  </outline>
</glyph>
<glyph name="n" format="2">
  <advance width="915"/>
  <unicode hex="006E"/>
  <outline>
    <contour>
      <point x="183" y="730" type="curve" smooth="yes"/>
      <point x="198" y="725"/>
      <point x="212" y="739"/>
      <point x="226" y="754" type="curve" smooth="yes"/>
      <point x="248" y="779"/>
      <point x="272" y="788"/>
      <point x="293" y="788" type="curve" smooth="yes"/>
      <point x="339" y="788"/>
      <point x="343" y="733"/>
      <point x="310" y="643" type="curve" smooth="yes"/>
      <point x="128" y="122" type="line" smooth="yes"/>
      <point x="98" y="39"/>
      <point x="90" y="-13"/>
      <point x="133" y="-13" type="curve" smooth="yes"/>
      <point x="169" y="-13"/>
      <point x="201" y="5"/>
      <point x="202" y="34" type="curve" smooth="yes"/>
      <point x="203" y="63"/>
      <point x="192" y="91"/>
      <point x="193" y="107" type="curve" smooth="yes"/>
      <point x="193" y="126"/>
      <point x="199" y="147"/>
      <point x="237" y="266" type="curve" smooth="yes"/>
      <point x="339" y="585"/>
      <point x="572" y="788"/>
      <point x="698" y="788" type="curve" smooth="yes"/>
      <point x="778" y="788"/>
      <point x="786" y="711"/>
      <point x="739" y="581" type="curve" smooth="yes"/>
      <point x="602" y="201" type="line" smooth="yes"/>
      <point x="547" y="52"/>
      <point x="544" y="-13"/>
      <point x="623" y="-13" type="curve" smooth="yes"/>
      <point x="685" y="-13"/>
      <point x="752" y="18"/>
      <point x="774" y="63" type="curve" smooth="yes"/>
      <point x="780" y="75"/>
      <point x="782" y="90"/>
      <point x="772" y="96" type="curve" smooth="yes"/>
      <point x="759" y="102"/>
      <point x="748" y="90"/>
      <point x="733" y="74" type="curve" smooth="yes"/>
      <point x="707" y="46"/>
      <point x="682" y="41"/>
      <point x="664" y="41" type="curve" smooth="yes"/>
      <point x="628" y="41"/>
      <point x="615" y="77"/>
      <point x="652" y="180" type="curve" smooth="yes"/>
      <point x="792" y="573" type="line" smooth="yes"/>
      <point x="856" y="751"/>
      <point x="857" y="838"/>
      <point x="748" y="838" type="curve" smooth="yes"/>
      <point x="596" y="838"/>
      <point x="367" y="702"/>
      <point x="211" y="286" type="curve"/>
      <point x="238" y="282" type="line"/>
      <point x="373" y="644"/>
      <point x="394" y="693"/>
      <point x="397" y="759" type="curve" smooth="yes"/>
      <point x="398" y="812"/>
      <point x="378" y="838"/>
      <point x="334" y="838" type="curve" smooth="yes"/>
      <point x="270" y="838"/>
      <point x="221" y="819"/>
      <point x="182" y="770" type="curve" smooth="yes"/>
      <point x="168" y="754"/>
      <point x="174" y="733"/>
    </contour>
  </outline>
</glyph>
<glyph name="o" format="2">
  <advance width="786"/>
  <unicode hex="006F"/>
  <outline>
    <contour>
      <point x="534" y="838" type="curve" smooth="yes"/>
      <point x="325" y="857"/>
      <point x="129" y="642"/>
      <point x="80" y="397" type="curve" smooth="yes"/>
      <point x="30" y="155"/>
      <point x="128" y="0"/>
      <point x="277" y="-13" type="curve" smooth="yes"/>
      <point x="481" y="-32"/>
      <point x="676" y="120"/>
      <point x="735" y="436" type="curve" smooth="yes"/>
      <point x="779" y="661"/>
      <point x="697" y="823"/>
    </contour>
    <contour>
      <point x="300" y="32" type="curve" smooth="yes"/>
      <point x="171" y="43"/>
      <point x="99" y="171"/>
      <point x="142" y="385" type="curve" smooth="yes"/>
      <point x="192" y="638"/>
      <point x="346" y="807"/>
      <point x="512" y="794" type="curve" smooth="yes"/>
      <point x="635" y="785"/>
      <point x="710" y="644"/>
      <point x="672" y="443" type="curve" smooth="yes"/>
      <point x="616" y="146"/>
      <point x="448" y="21"/>
    </contour>
  </outline>
</glyph>
<glyph name="p" format="2">
  <advance width="833"/>
  <unicode hex="0070"/>
  <outline>
    <contour>
      <point x="445" y="908" type="line" smooth="yes"/>
      <point x="451" y="927"/>
      <point x="457" y="944"/>
      <point x="458" y="972" type="curve" smooth="yes"/>
      <point x="459" y="989"/>
      <point x="455" y="1001"/>
      <point x="442" y="1001" type="curve" smooth="yes"/>
      <point x="427" y="1001"/>
      <point x="416" y="996"/>
      <point x="408" y="977" type="curve" smooth="yes"/>
      <point x="15" y="-302" type="line" smooth="yes"/>
      <point x="-3" y="-360"/>
      <point x="-25" y="-383"/>
      <point x="-88" y="-397" type="curve" smooth="yes"/>
      <point x="-95" y="-397"/>
      <point x="-104" y="-403"/>
      <point x="-104" y="-415" type="curve" smooth="yes"/>
      <point x="-105" y="-423"/>
      <point x="-94" y="-430"/>
      <point x="-81" y="-429" type="curve" smooth="yes"/>
      <point x="166" y="-420" type="line" smooth="yes"/>
      <point x="183" y="-419"/>
      <point x="195" y="-410"/>
      <point x="195" y="-399" type="curve" smooth="yes"/>
      <point x="195" y="-388"/>
      <point x="187" y="-381"/>
      <point x="165" y="-380" type="curve" smooth="yes"/>
      <point x="111" y="-372" type="line" smooth="yes"/>
      <point x="57" y="-362"/>
      <point x="75" y="-321"/>
      <point x="86" y="-282" type="curve" smooth="yes"/>
    </contour>
    <contour>
      <point x="204" y="637" type="curve" smooth="yes"/>
      <point x="317" y="753"/>
      <point x="417" y="803"/>
      <point x="535" y="791" type="curve" smooth="yes"/>
      <point x="667" y="777"/>
      <point x="750" y="653"/>
      <point x="710" y="422" type="curve" smooth="yes"/>
      <point x="662" y="149"/>
      <point x="508" y="17"/>
      <point x="357" y="34" type="curve" smooth="yes"/>
      <point x="274" y="42"/>
      <point x="223" y="83"/>
      <point x="197" y="157" type="curve"/>
      <point x="161" y="142" type="line"/>
      <point x="191" y="39"/>
      <point x="252" y="-5"/>
      <point x="345" y="-13" type="curve" smooth="yes"/>
      <point x="537" y="-31"/>
      <point x="729" y="132"/>
      <point x="775" y="410" type="curve" smooth="yes"/>
      <point x="821" y="681"/>
      <point x="728" y="825"/>
      <point x="549" y="839" type="curve" smooth="yes"/>
      <point x="415" y="849"/>
      <point x="299" y="802"/>
      <point x="164" y="660" type="curve" smooth="yes"/>
      <point x="149" y="646"/>
      <point x="146" y="626"/>
      <point x="163" y="619" type="curve" smooth="yes"/>
      <point x="176" y="614"/>
      <point x="190" y="622"/>
    </contour>
  </outline>
</glyph>
<glyph name="q" format="2">
  <advance width="773"/>
  <unicode hex="0071"/>
  <outline>
    <contour>
      <point x="621" y="410" type="line"/>
      <point x="402" y="-318" type="line" smooth="yes"/>
      <point x="383" y="-377"/>
      <point x="348" y="-403"/>
      <point x="254" y="-411" type="curve" smooth="yes"/>
      <point x="218" y="-413"/>
      <point x="208" y="-422"/>
      <point x="208" y="-430" type="curve" smooth="yes"/>
      <point x="207" y="-446"/>
      <point x="232" y="-454"/>
      <point x="257" y="-454" type="curve" smooth="yes"/>
      <point x="547" y="-443" type="line" smooth="yes"/>
      <point x="568" y="-443"/>
      <point x="579" y="-432"/>
      <point x="579" y="-420" type="curve" smooth="yes"/>
      <point x="580" y="-408"/>
      <point x="569" y="-399"/>
      <point x="549" y="-399" type="curve" smooth="yes"/>
      <point x="489" y="-392" type="line" smooth="yes"/>
      <point x="459" y="-390"/>
      <point x="452" y="-367"/>
      <point x="467" y="-316" type="curve" smooth="yes"/>
      <point x="752" y="659" type="line" smooth="yes"/>
      <point x="766" y="704"/>
      <point x="790" y="730"/>
      <point x="792" y="762" type="curve" smooth="yes"/>
      <point x="793" y="810"/>
      <point x="743" y="839"/>
      <point x="652" y="839" type="curve" smooth="yes"/>
      <point x="352" y="839"/>
      <point x="56" y="495"/>
      <point x="44" y="154" type="curve" smooth="yes"/>
      <point x="40" y="41"/>
      <point x="98" y="-13"/>
      <point x="188" y="-13" type="curve" smooth="yes"/>
      <point x="337" y="-13"/>
      <point x="517" y="126"/>
      <point x="639" y="397" type="curve"/>
    </contour>
    <contour>
      <point x="112" y="182" type="curve" smooth="yes"/>
      <point x="123" y="491"/>
      <point x="378" y="797"/>
      <point x="617" y="797" type="curve" smooth="yes"/>
      <point x="672" y="797"/>
      <point x="702" y="778"/>
      <point x="701" y="734" type="curve" smooth="yes"/>
      <point x="690" y="418"/>
      <point x="418" y="42"/>
      <point x="214" y="42" type="curve" smooth="yes"/>
      <point x="148" y="42"/>
      <point x="109" y="86"/>
    </contour>
  </outline>
</glyph>
<glyph name="r" format="2">
  <advance width="701"/>
  <unicode hex="0072"/>
  <outline>
    <contour>
      <point x="189" y="730" type="curve" smooth="yes"/>
      <point x="206" y="730"/>
      <point x="219" y="748"/>
      <point x="240" y="766" type="curve" smooth="yes"/>
      <point x="253" y="781"/>
      <point x="268" y="792"/>
      <point x="295" y="792" type="curve" smooth="yes"/>
      <point x="319" y="792"/>
      <point x="332" y="771"/>
      <point x="331" y="743" type="curve" smooth="yes"/>
      <point x="330" y="704"/>
      <point x="320" y="672"/>
      <point x="305" y="621" type="curve" smooth="yes"/>
      <point x="157" y="154" type="line" smooth="yes"/>
      <point x="142" y="108"/>
      <point x="130" y="63"/>
      <point x="130" y="45" type="curve" smooth="yes"/>
      <point x="128" y="12"/>
      <point x="142" y="-15"/>
      <point x="173" y="-15" type="curve" smooth="yes"/>
      <point x="203" y="-15"/>
      <point x="238" y="6"/>
      <point x="239" y="28" type="curve" smooth="yes"/>
      <point x="240" y="45"/>
      <point x="207" y="75"/>
      <point x="208" y="103" type="curve" smooth="yes"/>
      <point x="209" y="133"/>
      <point x="221" y="178"/>
      <point x="253" y="276" type="curve" smooth="yes"/>
      <point x="347" y="572"/>
      <point x="526" y="800"/>
      <point x="628" y="800" type="curve" smooth="yes"/>
      <point x="656" y="800"/>
      <point x="671" y="771"/>
      <point x="670" y="732" type="curve" smooth="yes"/>
      <point x="669" y="705"/>
      <point x="660" y="685"/>
      <point x="659" y="669" type="curve" smooth="yes"/>
      <point x="658" y="644"/>
      <point x="669" y="633"/>
      <point x="683" y="633" type="curve" smooth="yes"/>
      <point x="718" y="633"/>
      <point x="737" y="662"/>
      <point x="739" y="723" type="curve" smooth="yes"/>
      <point x="742" y="791"/>
      <point x="708" y="838"/>
      <point x="646" y="838" type="curve" smooth="yes"/>
      <point x="495" y="838"/>
      <point x="327" y="592"/>
      <point x="247" y="351" type="curve"/>
      <point x="264" y="347" type="line"/>
      <point x="267" y="429"/>
      <point x="393" y="654"/>
      <point x="397" y="764" type="curve" smooth="yes"/>
      <point x="398" y="813"/>
      <point x="377" y="838"/>
      <point x="325" y="838" type="curve" smooth="yes"/>
      <point x="245" y="838"/>
      <point x="174" y="785"/>
      <point x="173" y="750" type="curve" smooth="yes"/>
      <point x="173" y="737"/>
      <point x="179" y="730"/>
    </contour>
  </outline>
</glyph>
<glyph name="s" format="2">
  <advance width="614"/>
  <unicode hex="0073"/>
  <outline>
    <contour>
      <point x="264" y="33" type="curve" smooth="yes"/>
      <point x="192" y="33"/>
      <point x="134" y="68"/>
      <point x="102" y="144" type="curve" smooth="yes"/>
      <point x="88" y="175"/>
      <point x="72" y="183"/>
      <point x="55" y="183" type="curve" smooth="yes"/>
      <point x="36" y="183"/>
      <point x="22" y="168"/>
      <point x="21" y="144" type="curve" smooth="yes"/>
      <point x="19" y="79"/>
      <point x="108" y="-13"/>
      <point x="234" y="-13" type="curve" smooth="yes"/>
      <point x="389" y="-13"/>
      <point x="478" y="76"/>
      <point x="482" y="187" type="curve" smooth="yes"/>
      <point x="484" y="254"/>
      <point x="459" y="304"/>
      <point x="345" y="420" type="curve" smooth="yes"/>
      <point x="254" y="511"/>
      <point x="230" y="565"/>
      <point x="232" y="626" type="curve" smooth="yes"/>
      <point x="235" y="717"/>
      <point x="307" y="801"/>
      <point x="421" y="801" type="curve" smooth="yes"/>
      <point x="489" y="801"/>
      <point x="526" y="764"/>
      <point x="546" y="697" type="curve" smooth="yes"/>
      <point x="557" y="665"/>
      <point x="574" y="652"/>
      <point x="590" y="652" type="curve" smooth="yes"/>
      <point x="613" y="652"/>
      <point x="627" y="663"/>
      <point x="628" y="687" type="curve" smooth="yes"/>
      <point x="630" y="758"/>
      <point x="554" y="839"/>
      <point x="442" y="839" type="curve" smooth="yes"/>
      <point x="272" y="839"/>
      <point x="173" y="732"/>
      <point x="168" y="606" type="curve" smooth="yes"/>
      <point x="165" y="525"/>
      <point x="196" y="479"/>
      <point x="303" y="371" type="curve" smooth="yes"/>
      <point x="396" y="276"/>
      <point x="416" y="227"/>
      <point x="414" y="169" type="curve" smooth="yes"/>
      <point x="411" y="88"/>
      <point x="351" y="33"/>
    </contour>
  </outline>
</glyph>
<glyph name="t" format="2">
  <advance width="544"/>
  <unicode hex="0074"/>
  <outline>
    <contour>
      <point x="264" y="758" type="line" smooth="yes"/>
      <point x="292" y="752"/>
      <point x="287" y="730"/>
      <point x="269" y="673" type="curve" smooth="yes"/>
      <point x="114" y="176" type="line" smooth="yes"/>
      <point x="76" y="63"/>
      <point x="90" y="-13"/>
      <point x="187" y="-13" type="curve" smooth="yes"/>
      <point x="301" y="-13"/>
      <point x="446" y="81"/>
      <point x="448" y="145" type="curve" smooth="yes"/>
      <point x="448" y="155"/>
      <point x="444" y="162"/>
      <point x="434" y="162" type="curve" smooth="yes"/>
      <point x="424" y="162"/>
      <point x="420" y="160"/>
      <point x="406" y="144" type="curve" smooth="yes"/>
      <point x="350" y="77"/>
      <point x="299" y="50"/>
      <point x="234" y="50" type="curve" smooth="yes"/>
      <point x="167" y="50"/>
      <point x="144" y="89"/>
      <point x="197" y="253" type="curve" smooth="yes"/>
      <point x="413" y="914" type="line" smooth="yes"/>
      <point x="421" y="935"/>
      <point x="426" y="949"/>
      <point x="427" y="960" type="curve" smooth="yes"/>
      <point x="427" y="976"/>
      <point x="422" y="982"/>
      <point x="410" y="982" type="curve" smooth="yes"/>
      <point x="400" y="982"/>
      <point x="391" y="979"/>
      <point x="381" y="961" type="curve" smooth="yes"/>
      <point x="305" y="838" type="line" smooth="yes"/>
      <point x="297" y="828"/>
      <point x="289" y="821"/>
      <point x="272" y="821" type="curve" smooth="yes"/>
      <point x="187" y="821" type="line" smooth="yes"/>
      <point x="172" y="821"/>
      <point x="158" y="811"/>
      <point x="158" y="802" type="curve" smooth="yes"/>
      <point x="158" y="789"/>
      <point x="167" y="781"/>
      <point x="182" y="778" type="curve" smooth="yes"/>
    </contour>
    <contour>
      <point x="294" y="776" type="line"/>
      <point x="563" y="776" type="line" smooth="yes"/>
      <point x="593" y="776"/>
      <point x="614" y="785"/>
      <point x="615" y="804" type="curve" smooth="yes"/>
      <point x="615" y="813"/>
      <point x="606" y="822"/>
      <point x="590" y="822" type="curve" smooth="yes"/>
      <point x="312" y="822" type="line"/>
    </contour>
  </outline>
</glyph>
<glyph name="u" format="2">
  <advance width="915"/>
  <unicode hex="0075"/>
  <anchor x="441" y="935" name="center"/>
  <outline>
    <contour>
      <point x="768" y="95" type="curve" smooth="yes"/>
      <point x="754" y="100"/>
      <point x="741" y="86"/>
      <point x="726" y="71" type="curve" smooth="yes"/>
      <point x="704" y="46"/>
      <point x="680" y="37"/>
      <point x="660" y="37" type="curve" smooth="yes"/>
      <point x="613" y="37"/>
      <point x="610" y="92"/>
      <point x="642" y="182" type="curve" smooth="yes"/>
      <point x="824" y="703" type="line" smooth="yes"/>
      <point x="854" y="787"/>
      <point x="863" y="838"/>
      <point x="820" y="838" type="curve" smooth="yes"/>
      <point x="784" y="838"/>
      <point x="752" y="821"/>
      <point x="751" y="791" type="curve" smooth="yes"/>
      <point x="750" y="763"/>
      <point x="761" y="734"/>
      <point x="760" y="719" type="curve" smooth="yes"/>
      <point x="759" y="699"/>
      <point x="754" y="678"/>
      <point x="716" y="559" type="curve" smooth="yes"/>
      <point x="613" y="240"/>
      <point x="380" y="38"/>
      <point x="255" y="38" type="curve" smooth="yes"/>
      <point x="175" y="38"/>
      <point x="167" y="114"/>
      <point x="214" y="245" type="curve" smooth="yes"/>
      <point x="350" y="624" type="line" smooth="yes"/>
      <point x="406" y="773"/>
      <point x="408" y="838"/>
      <point x="330" y="838" type="curve" smooth="yes"/>
      <point x="267" y="838"/>
      <point x="201" y="807"/>
      <point x="179" y="762" type="curve" smooth="yes"/>
      <point x="173" y="750"/>
      <point x="171" y="734"/>
      <point x="180" y="730" type="curve" smooth="yes"/>
      <point x="194" y="723"/>
      <point x="205" y="734"/>
      <point x="220" y="752" type="curve" smooth="yes"/>
      <point x="246" y="778"/>
      <point x="270" y="784"/>
      <point x="287" y="784" type="curve" smooth="yes"/>
      <point x="324" y="784"/>
      <point x="337" y="749"/>
      <point x="299" y="644" type="curve" smooth="yes"/>
      <point x="161" y="252" type="line" smooth="yes"/>
      <point x="97" y="75"/>
      <point x="96" y="-13"/>
      <point x="204" y="-13" type="curve" smooth="yes"/>
      <point x="356" y="-13"/>
      <point x="586" y="123"/>
      <point x="742" y="539" type="curve"/>
      <point x="715" y="543" type="line"/>
      <point x="579" y="181"/>
      <point x="559" y="132"/>
      <point x="556" y="66" type="curve" smooth="yes"/>
      <point x="554" y="13"/>
      <point x="575" y="-13"/>
      <point x="618" y="-13" type="curve" smooth="yes"/>
      <point x="683" y="-13"/>
      <point x="731" y="6"/>
      <point x="771" y="55" type="curve" smooth="yes"/>
      <point x="783" y="70"/>
      <point x="779" y="92"/>
    </contour>
  </outline>
</glyph>
<glyph name="v" format="2">
  <advance width="813"/>
  <unicode hex="0076"/>
  <outline>
    <contour>
      <point x="802" y="707" type="curve" smooth="yes"/>
      <point x="805" y="801"/>
      <point x="772" y="838"/>
      <point x="730" y="838" type="curve" smooth="yes"/>
      <point x="708" y="838"/>
      <point x="689" y="820"/>
      <point x="688" y="804" type="curve" smooth="yes"/>
      <point x="687" y="779"/>
      <point x="697" y="764"/>
      <point x="723" y="738" type="curve" smooth="yes"/>
      <point x="744" y="719"/>
      <point x="747" y="687"/>
      <point x="745" y="624" type="curve" smooth="yes"/>
      <point x="735" y="349"/>
      <point x="507" y="40"/>
      <point x="351" y="40" type="curve" smooth="yes"/>
      <point x="278" y="40"/>
      <point x="243" y="86"/>
      <point x="246" y="176" type="curve" smooth="yes"/>
      <point x="253" y="368"/>
      <point x="412" y="526"/>
      <point x="489" y="781" type="curve" smooth="yes"/>
      <point x="501" y="816"/>
      <point x="503" y="837"/>
      <point x="487" y="840" type="curve" smooth="yes"/>
      <point x="466" y="845"/>
      <point x="452" y="809"/>
      <point x="426" y="809" type="curve" smooth="yes"/>
      <point x="379" y="809"/>
      <point x="285" y="839"/>
      <point x="245" y="839" type="curve" smooth="yes"/>
      <point x="151" y="839"/>
      <point x="95" y="772"/>
      <point x="92" y="681" type="curve" smooth="yes"/>
      <point x="90" y="638"/>
      <point x="110" y="621"/>
      <point x="134" y="621" type="curve" smooth="yes"/>
      <point x="154" y="621"/>
      <point x="173" y="637"/>
      <point x="174" y="659" type="curve" smooth="yes"/>
      <point x="174" y="672"/>
      <point x="172" y="679"/>
      <point x="162" y="690" type="curve" smooth="yes"/>
      <point x="154" y="699"/>
      <point x="150" y="710"/>
      <point x="150" y="724" type="curve" smooth="yes"/>
      <point x="152" y="764"/>
      <point x="180" y="794"/>
      <point x="223" y="794" type="curve" smooth="yes"/>
      <point x="279" y="794"/>
      <point x="398" y="760"/>
      <point x="447" y="760" type="curve"/>
      <point x="447" y="793" type="line"/>
      <point x="385" y="580"/>
      <point x="197" y="385"/>
      <point x="183" y="179" type="curve" smooth="yes"/>
      <point x="175" y="56"/>
      <point x="227" y="-14"/>
      <point x="317" y="-14" type="curve" smooth="yes"/>
      <point x="533" y="-14"/>
      <point x="788" y="321"/>
    </contour>
  </outline>
</glyph>
<glyph name="w" format="2">
  <advance width="1229"/>
  <unicode hex="0077"/>
  <outline>
    <contour>
      <point x="807" y="842" type="curve" smooth="yes"/>
      <point x="782" y="846"/>
      <point x="769" y="814"/>
      <point x="739" y="713" type="curve" smooth="yes"/>
      <point x="682" y="511"/>
      <point x="658" y="360"/>
      <point x="654" y="254" type="curve" smooth="yes"/>
      <point x="648" y="82"/>
      <point x="706" y="-13"/>
      <point x="815" y="-13" type="curve" smooth="yes"/>
      <point x="982" y="-13"/>
      <point x="1198" y="256"/>
      <point x="1214" y="711" type="curve" smooth="yes"/>
      <point x="1217" y="811"/>
      <point x="1189" y="837"/>
      <point x="1154" y="837" type="curve" smooth="yes"/>
      <point x="1124" y="837"/>
      <point x="1103" y="817"/>
      <point x="1102" y="794" type="curve" smooth="yes"/>
      <point x="1101" y="778"/>
      <point x="1108" y="754"/>
      <point x="1126" y="724" type="curve" smooth="yes"/>
      <point x="1140" y="699"/>
      <point x="1150" y="669"/>
      <point x="1149" y="627" type="curve" smooth="yes"/>
      <point x="1136" y="269"/>
      <point x="953" y="41"/>
      <point x="829" y="41" type="curve" smooth="yes"/>
      <point x="749" y="41"/>
      <point x="712" y="112"/>
      <point x="717" y="270" type="curve" smooth="yes"/>
      <point x="722" y="411"/>
      <point x="758" y="580"/>
      <point x="772" y="622" type="curve"/>
      <point x="657" y="185"/>
      <point x="471" y="37"/>
      <point x="351" y="37" type="curve" smooth="yes"/>
      <point x="279" y="37"/>
      <point x="244" y="84"/>
      <point x="247" y="178" type="curve" smooth="yes"/>
      <point x="254" y="365"/>
      <point x="411" y="546"/>
      <point x="489" y="774" type="curve" smooth="yes"/>
      <point x="503" y="813"/>
      <point x="505" y="835"/>
      <point x="491" y="837" type="curve" smooth="yes"/>
      <point x="467" y="842"/>
      <point x="455" y="806"/>
      <point x="428" y="806" type="curve" smooth="yes"/>
      <point x="376" y="806"/>
      <point x="278" y="838"/>
      <point x="244" y="838" type="curve" smooth="yes"/>
      <point x="151" y="838"/>
      <point x="95" y="769"/>
      <point x="92" y="684" type="curve" smooth="yes"/>
      <point x="90" y="641"/>
      <point x="106" y="621"/>
      <point x="135" y="621" type="curve" smooth="yes"/>
      <point x="154" y="621"/>
      <point x="173" y="637"/>
      <point x="174" y="661" type="curve" smooth="yes"/>
      <point x="175" y="673"/>
      <point x="169" y="684"/>
      <point x="159" y="694" type="curve" smooth="yes"/>
      <point x="153" y="701"/>
      <point x="151" y="709"/>
      <point x="151" y="724" type="curve" smooth="yes"/>
      <point x="153" y="767"/>
      <point x="185" y="793"/>
      <point x="214" y="793" type="curve" smooth="yes"/>
      <point x="267" y="793"/>
      <point x="377" y="756"/>
      <point x="442" y="756" type="curve"/>
      <point x="444" y="782" type="line"/>
      <point x="415" y="649"/>
      <point x="188" y="353"/>
      <point x="182" y="181" type="curve" smooth="yes"/>
      <point x="178" y="64"/>
      <point x="229" y="-13"/>
      <point x="323" y="-13" type="curve" smooth="yes"/>
      <point x="504" y="-13"/>
      <point x="701" y="161"/>
      <point x="805" y="695" type="curve" smooth="yes"/>
      <point x="827" y="799"/>
      <point x="831" y="838"/>
    </contour>
  </outline>
</glyph>
<glyph name="x" format="2">
  <advance width="891"/>
  <unicode hex="0078"/>
  <outline>
    <contour>
      <point x="461" y="466" type="line"/>
      <point x="325" y="104"/>
      <point x="205" y="28"/>
      <point x="132" y="28" type="curve" smooth="yes"/>
      <point x="95" y="28"/>
      <point x="81" y="52"/>
      <point x="82" y="90" type="curve" smooth="yes"/>
      <point x="83" y="125"/>
      <point x="89" y="155"/>
      <point x="90" y="180" type="curve" smooth="yes"/>
      <point x="91" y="207"/>
      <point x="78" y="224"/>
      <point x="59" y="224" type="curve" smooth="yes"/>
      <point x="31" y="224"/>
      <point x="12" y="190"/>
      <point x="9" y="127" type="curve" smooth="yes"/>
      <point x="7" y="43"/>
      <point x="40" y="-16"/>
      <point x="121" y="-16" type="curve" smooth="yes"/>
      <point x="223" y="-16"/>
      <point x="376" y="101"/>
      <point x="497" y="456" type="curve"/>
    </contour>
    <contour>
      <point x="518" y="659" type="line" smooth="yes"/>
      <point x="525" y="781"/>
      <point x="485" y="839"/>
      <point x="410" y="839" type="curve" smooth="yes"/>
      <point x="329" y="839"/>
      <point x="253" y="802"/>
      <point x="200" y="734" type="curve" smooth="yes"/>
      <point x="185" y="718"/>
      <point x="182" y="700"/>
      <point x="200" y="692" type="curve" smooth="yes"/>
      <point x="214" y="685"/>
      <point x="233" y="696"/>
      <point x="245" y="712" type="curve" smooth="yes"/>
      <point x="286" y="771"/>
      <point x="335" y="795"/>
      <point x="387" y="795" type="curve" smooth="yes"/>
      <point x="435" y="795"/>
      <point x="466" y="750"/>
      <point x="461" y="665" type="curve" smooth="yes"/>
      <point x="434" y="176" type="line" smooth="yes"/>
      <point x="427" y="47"/>
      <point x="474" y="-13"/>
      <point x="555" y="-13" type="curve" smooth="yes"/>
      <point x="627" y="-13"/>
      <point x="705" y="17"/>
      <point x="753" y="92" type="curve" smooth="yes"/>
      <point x="767" y="113"/>
      <point x="760" y="137"/>
      <point x="748" y="141" type="curve" smooth="yes"/>
      <point x="732" y="146"/>
      <point x="723" y="134"/>
      <point x="706" y="116" type="curve" smooth="yes"/>
      <point x="655" y="54"/>
      <point x="613" y="33"/>
      <point x="570" y="33" type="curve" smooth="yes"/>
      <point x="518" y="33"/>
      <point x="479" y="70"/>
      <point x="487" y="175" type="curve" smooth="yes"/>
    </contour>
    <contour>
      <point x="485" y="362" type="line"/>
      <point x="620" y="707"/>
      <point x="730" y="795"/>
      <point x="809" y="795" type="curve" smooth="yes"/>
      <point x="838" y="795"/>
      <point x="853" y="777"/>
      <point x="852" y="748" type="curve" smooth="yes"/>
      <point x="851" y="712"/>
      <point x="835" y="675"/>
      <point x="834" y="649" type="curve" smooth="yes"/>
      <point x="833" y="624"/>
      <point x="842" y="608"/>
      <point x="859" y="608" type="curve" smooth="yes"/>
      <point x="891" y="608"/>
      <point x="919" y="654"/>
      <point x="921" y="733" type="curve" smooth="yes"/>
      <point x="923" y="794"/>
      <point x="888" y="838"/>
      <point x="819" y="838" type="curve" smooth="yes"/>
      <point x="710" y="838"/>
      <point x="577" y="739"/>
      <point x="448" y="375" type="curve"/>
    </contour>
  </outline>
</glyph>
<glyph name="y" format="2">
  <advance width="772"/>
  <unicode hex="0079"/>
  <outline>
    <contour>
      <point x="469" y="328" type="curve" smooth="yes"/>
      <point x="288" y="-94" type="line"/>
      <point x="322" y="-91" type="line"/>
      <point x="332" y="157"/>
      <point x="351" y="621"/>
      <point x="350" y="715" type="curve" smooth="yes"/>
      <point x="349" y="801"/>
      <point x="319" y="841"/>
      <point x="278" y="841" type="curve" smooth="yes"/>
      <point x="215" y="841"/>
      <point x="161" y="800"/>
      <point x="141" y="758" type="curve" smooth="yes"/>
      <point x="133" y="741"/>
      <point x="137" y="728"/>
      <point x="151" y="724" type="curve" smooth="yes"/>
      <point x="161" y="721"/>
      <point x="178" y="727"/>
      <point x="195" y="749" type="curve" smooth="yes"/>
      <point x="210" y="769"/>
      <point x="226" y="781"/>
      <point x="242" y="781" type="curve" smooth="yes"/>
      <point x="270" y="781"/>
      <point x="291" y="746"/>
      <point x="289" y="670" type="curve" smooth="yes"/>
      <point x="287" y="467"/>
      <point x="276" y="161"/>
      <point x="266" y="-4" type="curve" smooth="yes"/>
      <point x="252" y="-263"/>
      <point x="119" y="-398"/>
      <point x="-9" y="-398" type="curve" smooth="yes"/>
      <point x="-82" y="-398"/>
      <point x="-120" y="-363"/>
      <point x="-155" y="-363" type="curve" smooth="yes"/>
      <point x="-184" y="-363"/>
      <point x="-201" y="-378"/>
      <point x="-202" y="-405" type="curve" smooth="yes"/>
      <point x="-203" y="-435"/>
      <point x="-164" y="-460"/>
      <point x="-99" y="-460" type="curve" smooth="yes"/>
      <point x="97" y="-460"/>
      <point x="208" y="-379"/>
      <point x="331" y="-96" type="curve" smooth="yes"/>
      <point x="508" y="323" type="line" smooth="yes"/>
      <point x="673" y="716"/>
      <point x="744" y="773"/>
      <point x="837" y="782" type="curve" smooth="yes"/>
      <point x="879" y="784"/>
      <point x="897" y="799"/>
      <point x="897" y="816" type="curve" smooth="yes"/>
      <point x="898" y="834"/>
      <point x="884" y="847"/>
      <point x="854" y="847" type="curve" smooth="yes"/>
      <point x="735" y="847"/>
      <point x="621" y="694"/>
    </contour>
  </outline>
</glyph>
<glyph name="z" format="2">
  <advance width="697"/>
  <unicode hex="007A"/>
  <outline>
    <contour>
      <point x="129" y="54" type="curve"/>
      <point x="139" y="78" type="line"/>
      <point x="246" y="78"/>
      <point x="352" y="39"/>
      <point x="440" y="39" type="curve" smooth="yes"/>
      <point x="499" y="39"/>
      <point x="545" y="70"/>
      <point x="570" y="163" type="curve" smooth="yes"/>
      <point x="573" y="176"/>
      <point x="583" y="180"/>
      <point x="589" y="180" type="curve" smooth="yes"/>
      <point x="600" y="180"/>
      <point x="604" y="172"/>
      <point x="603" y="157" type="curve" smooth="yes"/>
      <point x="600" y="71"/>
      <point x="534" y="-13"/>
      <point x="430" y="-13" type="curve" smooth="yes"/>
      <point x="312" y="-13"/>
      <point x="203" y="42"/>
      <point x="148" y="42" type="curve" smooth="yes"/>
      <point x="125" y="42"/>
      <point x="109" y="-12"/>
      <point x="63" y="-12" type="curve" smooth="yes"/>
      <point x="35" y="-12"/>
      <point x="18" y="4"/>
      <point x="19" y="31" type="curve" smooth="yes"/>
      <point x="20" y="52"/>
      <point x="35" y="70"/>
      <point x="58" y="78" type="curve" smooth="yes"/>
      <point x="91" y="95"/>
      <point x="132" y="149"/>
      <point x="369" y="431" type="curve" smooth="yes"/>
      <point x="545" y="638"/>
      <point x="607" y="724"/>
      <point x="630" y="765" type="curve"/>
      <point x="651" y="757" type="line"/>
      <point x="587" y="757"/>
      <point x="425" y="794"/>
      <point x="341" y="794" type="curve" smooth="yes"/>
      <point x="277" y="794"/>
      <point x="242" y="770"/>
      <point x="241" y="732" type="curve" smooth="yes"/>
      <point x="240" y="721"/>
      <point x="246" y="703"/>
      <point x="263" y="685" type="curve" smooth="yes"/>
      <point x="275" y="673"/>
      <point x="279" y="659"/>
      <point x="279" y="646" type="curve" smooth="yes"/>
      <point x="278" y="623"/>
      <point x="264" y="609"/>
      <point x="243" y="609" type="curve" smooth="yes"/>
      <point x="208" y="609"/>
      <point x="186" y="638"/>
      <point x="188" y="688" type="curve" smooth="yes"/>
      <point x="191" y="771"/>
      <point x="253" y="839"/>
      <point x="352" y="839" type="curve" smooth="yes"/>
      <point x="444" y="839"/>
      <point x="529" y="800"/>
      <point x="598" y="800" type="curve" smooth="yes"/>
      <point x="646" y="800"/>
      <point x="657" y="839"/>
      <point x="702" y="839" type="curve" smooth="yes"/>
      <point x="721" y="839"/>
      <point x="736" y="825"/>
      <point x="735" y="805" type="curve" smooth="yes"/>
      <point x="734" y="780"/>
      <point x="719" y="760"/>
      <point x="691" y="732" type="curve" smooth="yes"/>
      <point x="650" y="693"/>
      <point x="577" y="602"/>
      <point x="404" y="400" type="curve" smooth="yes"/>
      <point x="228" y="202"/>
      <point x="189" y="149"/>
    </contour>
  </outline>
</glyph>
